<svg xmlns="http://www.w3.org/2000/svg"><path d="M32 37h-5a1 1 0 1 1 0-2h5a1 1 0 1 1 0 2Zm-18 0H9a1 1 0 1 1 0-2h5a1 1 0 1 1 0 2Zm5-21.874v-2.043A6.016 6.016 0 0 0 14.083 18h2.044A4.015 4.015 0 0 1 19 15.126Zm2 7.747v2.044A6.017 6.017 0 0 0 25.917 20h-2.044A4.014 4.014 0 0 1 21 22.873ZM16.127 20h-2.044A6.017 6.017 0 0 0 19 24.917v-2.044A4.014 4.014 0 0 1 16.127 20ZM22 19c0-1.103-.897-2-2-2s-2 .897-2 2 .897 2 2 2 2-.897 2-2Zm-1-5.917v2.043A4.015 4.015 0 0 1 23.873 18h2.044A6.016 6.016 0 0 0 21 13.084ZM32.5 3.5h-25a3 3 0 0 0-3 3v25a3 3 0 0 0 3 3h25a3 3 0 0 0 3-3v-25a3 3 0 0 0-3-3ZM20 27c-4.411 0-8-3.589-8-8s3.589-8 8-8 8 3.589 8 8-3.589 8-8 8Z" fill="currentColor"/></svg>