<svg xmlns="http://www.w3.org/2000/svg"><path d="M36.57 16H31V7.53C31 6.134 29.912 5 28.57 5H3.43C2.088 5 1 6.133 1 7.53v14.94C1 23.866 2.088 25 3.43 25H9v8.47C9 34.866 10.088 36 11.43 36h25.14c1.342 0 2.43-1.133 2.43-2.53V18.53c0-1.397-1.088-2.53-2.43-2.53ZM27 22H13a1 1 0 1 1 0-2h14a1 1 0 1 1 0 2ZM5 9h14a1 1 0 1 1 0 2H5a1 1 0 1 1 0-2Zm0 6a1 1 0 1 1 0-2h8.182a1 1 0 1 1 0 2H5Zm16.182 11H13a1 1 0 1 1 0-2h8.182a1 1 0 1 1 0 2ZM33.5 33a2.966 2.966 0 0 1-1.5-.417 2.966 2.966 0 0 1-1.5.417c-1.654 0-3-1.346-3-3s1.346-3 3-3c.549 0 1.057.159 1.5.417A2.966 2.966 0 0 1 33.5 27c1.654 0 3 1.346 3 3s-1.346 3-3 3Zm1-3a1 1 0 0 1-1 1c-.061 0-.115-.024-.173-.035.104-.305.173-.626.173-.965s-.069-.66-.173-.965c.058-.01.112-.035.173-.035a1 1 0 0 1 1 1Zm-3 0c0 .49-.36.88-.827.965-.058.01-.112.035-.173.035a1 1 0 0 1 0-2c.061 0 .115.024.173.035A.987.987 0 0 1 31.5 30Z" fill="currentColor"/></svg>