<svg width="53" height="12" viewBox="0 0 53 12" fill="none" xmlns="http://www.w3.org/2000/svg">
<path fill-rule="evenodd" clip-rule="evenodd" d="M7.03777 12C10.593 10.8885 13.1295 9.00283 15.3882 7.13535C15.7273 6.85499 16.059 6.57641 16.3859 6.30186C19.4561 3.72309 22.1029 1.5 26.5 1.5C28.5521 1.5 30.1519 2.17217 31.6744 3.21002C32.7169 3.92072 33.6938 4.77879 34.7551 5.71099L34.7554 5.71119C35.278 6.17025 35.8211 6.64729 36.4026 7.13356C38.6468 9.01018 41.3244 10.8912 45.2064 12H53C44.7562 12 40.4189 9.18855 37.0441 6.36644C36.5081 5.91821 35.9876 5.4613 35.475 5.01128L35.475 5.01125C34.3851 4.05447 33.3306 3.1288 32.2376 2.38374C30.597 1.26533 28.8041 0.5 26.5 0.5C21.7208 0.5 18.7961 2.96316 15.7516 5.52715L15.7515 5.52724C15.4203 5.80619 15.0876 6.08635 14.751 6.36465C11.3163 9.20436 7.34299 12 0 12H7.03777Z" fill="#BDBDBD"/>
</svg>
