<svg width="28" height="29" fill="none" xmlns="http://www.w3.org/2000/svg"><mask id="a" style="mask-type:alpha" maskUnits="userSpaceOnUse" x="0" y="0" width="28" height="28"><rect width="28" height="28" rx="14" fill="#C4C4C4"/></mask><g mask="url(#a)"><rect width="28" height="28" rx="14" fill="#41479B"/><path d="m22.744 14.38-.776.555.288-.91-.767-.566.954-.007.301-.905.302.905.954.007-.767.567.287.91-.776-.556ZM9.508 6.743l-.776.554.288-.91-.767-.566.954-.007.301-.905.302.905.954.007-.767.567.287.91-.776-.555ZM6.28 9.97l-.776.555.288-.91-.768-.566.954-.007.302-.905.302.905.954.007-.768.567.288.91-.776-.555ZM5.105 14.38l-.776.555.288-.91-.768-.566.954-.007.302-.905.302.905.953.007-.767.567.288.91-.776-.556ZM6.287 18.79l-.776.555.288-.91-.768-.566.954-.007.302-.905.302.905.954.007-.768.567.288.91-.776-.555ZM9.515 22.019l-.776.554.288-.91-.767-.566.954-.007.301-.905.302.905.954.007-.767.567.287.91-.776-.555ZM13.925 23.2l-.777.555.288-.91-.767-.566.954-.008.302-.904.301.904.954.008-.767.566.288.91-.776-.555ZM18.34 22.019l-.775.554.287-.91-.767-.566.954-.007.302-.905.301.905.954.007-.767.567.288.91-.776-.555ZM21.569 18.79l-.776.555.288-.91-.768-.566.954-.007.302-.905.302.905.954.007-.768.567.288.91-.776-.555ZM21.563 9.97l-.776.555.288-.909-.768-.567.954-.007.302-.905.302.905.954.007-.768.567.288.91-.776-.555ZM13.925 5.56l-.777.555.288-.91-.767-.566.954-.007.302-.905.301.905.954.007-.767.567.288.91-.776-.555ZM18.348 6.743l-.776.554.288-.91-.767-.566.954-.007.301-.905.302.905.954.007-.767.567.288.91-.777-.555Z" fill="#FFD83D"/></g></svg>