<svg width="28" height="29" fill="none" xmlns="http://www.w3.org/2000/svg"><mask id="a" style="mask-type:alpha" maskUnits="userSpaceOnUse" x="0" y="0" width="28" height="28"><rect width="28" height="28" rx="14" fill="#C4C4C4"/></mask><g mask="url(#a)"><g clip-path="url(#b)"><path fill="#41479B" d="M-5.95 1h39.9v28h-39.9z"/><path d="M33.95 1h-3.8L14 12.387-2.15 1h-3.8v2.643L10.2 15-5.95 26.357V29h3.8L14 17.613 30.15 29h3.8v-2.643L17.8 15 33.95 3.643V1Z" fill="#fff"/><path d="M33.95 1h-1.9L14 14.067-4.05 1h-1.9v.933L12.1 15-5.95 28.067V29h1.9L14 15.933 32.05 29h1.9v-.933L15.9 15 33.95 1.933V1Z" fill="#FF4B55"/><path d="M16.85 1h-5.7v11.2h-17.1v5.6h17.1V29h5.7V17.8h17.1v-5.6h-17.1V1Z" fill="#fff"/><path d="M15.9 1h-3.8v12.133H-5.95v3.734H12.1V29h3.8V16.867h18.05v-3.734H15.9V1Z" fill="#FF4B55"/></g><rect x=".25" y=".25" width="27.5" height="27.5" rx="13.75" stroke="#fff" stroke-opacity=".16" stroke-width=".5"/></g><defs><clipPath id="b"><path d="M-5.95 13c0-5.657 0-8.485 1.757-10.243C-2.435 1 .393 1 6.05 1h15.9c5.657 0 8.485 0 10.243 1.757C33.95 4.515 33.95 7.343 33.95 13v4c0 5.657 0 8.485-1.757 10.243C30.435 29 27.607 29 21.95 29H6.05c-5.657 0-8.485 0-10.243-1.757C-5.95 25.485-5.95 22.657-5.95 17v-4Z" fill="#fff"/></clipPath></defs></svg>