<svg width="108" height="33" fill="none" xmlns="http://www.w3.org/2000/svg"><path d="M60.633 14.49h-6.46l-.799 1.795c-.254.596-.383 1.086-.383 1.475 0 .517.211.899.627 1.14.244.142.844.251 1.805.325v.506h-6.12v-.506c.658-.099 1.202-.369 1.625-.817.428-.453.953-1.372 1.578-2.776l6.58-14.69h.26l6.64 15.097c.634 1.426 1.152 2.325 1.557 2.692.31.287.747.45 1.302.494v.506h-8.9v-.506h.365c.711 0 1.217-.099 1.509-.3.199-.144.296-.35.296-.62 0-.164-.027-.33-.082-.5-.015-.084-.15-.42-.404-1.019l-.996-2.296Zm-.438-.997L57.451 7.18l-2.826 6.313h5.57ZM81.753 9.772c1.795.416 3.056.918 3.781 1.51 1.047.842 1.566 1.931 1.566 3.268 0 1.414-.567 2.58-1.703 3.504-1.399 1.119-3.425 1.677-6.086 1.677h-9.552v-.515c.862 0 1.457-.082 1.762-.247.314-.157.524-.367.655-.624.125-.26.186-.894.186-1.909V4.238c0-1.013-.061-1.654-.186-1.913a1.372 1.372 0 0 0-.657-.628c-.315-.16-.899-.237-1.76-.237V.943h9.007c2.162 0 3.68.194 4.578.577.9.38 1.603.953 2.118 1.718.52.76.779 1.574.779 2.431 0 .908-.33 1.712-.993 2.42-.66.71-1.824 1.266-3.495 1.683Zm-5.02.707-.013 6.025v.69c0 .494.127.87.38 1.12.246.254.612.383 1.102.383.727 0 1.391-.161 2.006-.488a3.34 3.34 0 0 0 1.407-1.427 4.5 4.5 0 0 0 .486-2.087c0-.878-.179-1.661-.552-2.36-.367-.698-.904-1.184-1.618-1.455-.715-.281-1.783-.411-3.199-.4Zm0-1.082c1.317 0 2.288-.146 2.914-.443.624-.296 1.102-.71 1.437-1.25.334-.538.507-1.225.507-2.057 0-.832-.172-1.518-.494-2.052a3.158 3.158 0 0 0-1.415-1.213c-.612-.276-1.593-.414-2.942-.404l-.008 7.42ZM100.684 9.772c1.798.416 3.062.918 3.783 1.51 1.041.842 1.562 1.931 1.562 3.268 0 1.414-.568 2.58-1.705 3.504-1.394 1.119-3.423 1.677-6.08 1.677H88.69v-.515c.87 0 1.453-.082 1.766-.247.308-.157.528-.367.647-.624.127-.26.187-.894.187-1.909V4.238c0-1.013-.06-1.654-.187-1.913-.119-.265-.34-.477-.658-.628-.313-.16-.897-.237-1.755-.237V.943h9.011c2.155 0 3.68.194 4.57.577.898.38 1.608.953 2.127 1.718.513.76.774 1.574.774 2.431 0 .908-.333 1.712-.99 2.42-.663.71-1.83 1.266-3.499 1.683Zm-5.018.707-.013 6.025v.69c0 .494.125.87.372 1.12.25.254.618.383 1.11.383a4.2 4.2 0 0 0 2.007-.488 3.327 3.327 0 0 0 1.401-1.427c.328-.624.491-1.319.491-2.087 0-.878-.185-1.661-.55-2.36-.371-.698-.911-1.184-1.623-1.455-.71-.281-1.78-.411-3.195-.4Zm0-1.082c1.315 0 2.281-.146 2.91-.443.628-.296 1.106-.71 1.441-1.25.332-.538.5-1.225.5-2.057 0-.832-.167-1.518-.495-2.052a3.122 3.122 0 0 0-1.409-1.213c-.61-.276-1.592-.414-2.946-.404l-.001 7.42ZM47.21 10.307c0 .089-.005.178-.01.266-1.61-.68-4.34-1.186-7.616-1.186-9.665 0-20.183 8.534-24.54 9.548-3.635-.64-6.785-1.65-9.165-2.915 1.503.518 3.6.832 5.365.832 9.072 0 17.904-5.958 22.96-8.644 4.651-2.465 7.264-2.946 10.337-2.291 1.703 1.31 2.668 2.804 2.668 4.39ZM4.327 15.085c-2.031-1.4-3.197-3.033-3.197-4.778C1.13 5.12 11.446.913 24.167.913c7.9 0 14.869 1.62 19.02 4.09-1.19-.36-2.777-.569-5.048-.569-7.789 0-17.342 5.705-21.833 7.803-4.386 2.044-8.995 3.771-11.978 2.848Zm42.845-4.257c-.663 4.95-10.708 8.873-23.006 8.873-.372 0-.741-.004-1.108-.011 13.296-7.1 17.84-9.382 24.114-8.862Z" fill="#DA251D"/><path d="M0 10.307c0 5.685 10.84 10.31 24.167 10.31 13.328 0 24.172-4.625 24.172-10.31 0-2.767-2.525-5.363-7.108-7.307-4.56-1.934-10.617-3-17.064-3C10.84 0 0 4.623 0 10.307Zm.169 0C.169 4.724 10.935.179 24.167.179c6.427 0 12.463 1.06 17.005 2.99 4.513 1.913 7 4.446 7 7.138 0 5.586-10.768 10.127-24.005 10.127-13.232 0-23.998-4.541-23.998-10.127ZM6.814 29.688H4.067l-.47 1.116c-.121.28-.18.484-.18.616 0 .105.05.2.151.287a.72.72 0 0 0 .255.116c.109.026.246.04.413.04v.193H2.009v-.193c.288-.053.479-.12.573-.204.17-.16.367-.499.59-1.017l2.488-5.82h.182l2.462 5.882c.198.474.378.782.538.924.087.073.187.13.3.173.113.041.24.062.379.062v.193H6.729v-.193c.139 0 .254-.012.347-.037a.587.587 0 0 0 .222-.103c.1-.08.152-.178.152-.294 0-.153-.07-.395-.207-.726l-.429-1.015Zm-.151-.387-1.197-2.86-1.234 2.86h2.43ZM16.858 32.056h-1.887l-2.395-3.307h-.741v2.055c0 .445.048.723.146.83.132.153.33.23.595.23h.276v.192h-3.03v-.192h.265c.299 0 .513-.098.643-.293.072-.105.108-.36.108-.767v-4.57c0-.446-.048-.722-.146-.83-.135-.153-.336-.23-.605-.23H9.82v-.192h2.577c.762 0 1.32.053 1.67.162.35.107.652.31.9.605.248.296.373.647.373 1.054 0 .435-.14.81-.422 1.13-.283.318-.723.544-1.321.68l1.462 2.027c.33.465.617.775.86.931.233.146.546.244.938.292v.193Zm-5.023-3.636.173.005h.12c.67 0 1.178-.146 1.523-.438a1.4 1.4 0 0 0 .517-1.116c0-.438-.137-.796-.413-1.075-.275-.278-.641-.417-1.1-.417-.205 0-.48.034-.82.1v2.941ZM21.137 32.056l-2.733-5.952v4.727c0 .43.046.701.14.814.127.146.33.218.611.218h.251v.193h-2.464v-.192h.251c.295 0 .507-.091.636-.271a.711.711 0 0 0 .083-.274c.022-.132.032-.294.032-.488v-4.624c0-.317-.035-.543-.105-.678a.574.574 0 0 0-.269-.253c-.13-.068-.34-.102-.628-.102v-.192h2.005l2.564 5.535 2.526-5.535h2.003v.192h-.245c-.303 0-.517.091-.641.27a.711.711 0 0 0-.084.275 3.123 3.123 0 0 0-.032.488v4.624c0 .434.048.705.146.814.124.146.33.218.61.218h.246v.193h-3.007v-.192h.251c.3 0 .511-.091.636-.271a.711.711 0 0 0 .083-.274c.022-.13.032-.294.032-.488v-4.727l-2.727 5.952h-.171ZM31.198 28.445c.488.105.855.27 1.1.5.337.32.506.712.506 1.175 0 .348-.11.684-.33 1.006a1.88 1.88 0 0 1-.916.707c-.39.148-.983.223-1.779.223h-3.338v-.192h.265c.289 0 .5-.095.637-.282.08-.123.12-.38.12-.778v-4.57c0-.442-.05-.72-.152-.83-.135-.153-.336-.23-.605-.23h-.265v-.192h3.057c.563 0 1.02.04 1.373.125.521.126.918.347 1.194.665.275.317.412.684.412 1.097 0 .36-.107.675-.319.951-.212.274-.532.482-.96.625Zm-2.733-.281.438.057.549.016c.51 0 .892-.054 1.144-.162.253-.107.447-.276.584-.504.138-.228.207-.476.207-.743 0-.411-.167-.762-.504-1.056-.334-.293-.828-.441-1.48-.441-.35 0-.663.037-.938.114v2.719Zm0 3.38c.403.095.802.142 1.195.142.625 0 1.104-.141 1.435-.422.333-.284.499-.634.499-1.055 0-.272-.073-.534-.221-.788-.148-.255-.392-.454-.728-.602-.337-.148-.757-.223-1.257-.223h-.552a2.211 2.211 0 0 0-.37.037v2.912ZM38.486 25.174v-.192h2.503v.192h-.265a.713.713 0 0 0-.641.349c-.073.105-.11.356-.11.751v2.87c0 .716-.07 1.268-.209 1.653-.139.383-.416.717-.83 1-.412.284-.975.426-1.684.426-.776 0-1.362-.133-1.755-.399a2.225 2.225 0 0 1-.853-1.082c-.112-.314-.168-.894-.168-1.743v-2.766c0-.434-.058-.72-.178-.856-.117-.135-.311-.203-.584-.203h-.265v-.192h3.057v.192h-.27c-.296 0-.504.093-.627.276-.087.134-.13.393-.13.783v3.084a5.99 5.99 0 0 0 .073.944c.052.361.144.64.274.835.13.194.32.356.57.486.123.059.262.105.418.14.157.035.323.052.5.052.46 0 .871-.1 1.236-.297.365-.198.616-.456.752-.773.135-.317.203-.85.203-1.606v-2.864c0-.442-.048-.72-.146-.83-.136-.153-.337-.23-.606-.23h-.265ZM46.003 24.822v2.446h-.192a4.014 4.014 0 0 0-.132-.629 2.2 2.2 0 0 0-.208-.493 1.716 1.716 0 0 0-.686-.66c-.3-.166-.61-.248-.931-.248-.361 0-.66.11-.897.331-.237.221-.355.472-.355.754 0 .213.075.409.225.589.208.258.72.605 1.538 1.043.657.356 1.106.627 1.346.814.24.189.427.411.56.671.134.258.202.529.202.81 0 .53-.208.99-.623 1.38-.417.392-.95.588-1.604.588-.202 0-.396-.016-.579-.047-.105-.014-.328-.076-.671-.188-.342-.112-.558-.168-.645-.168-.08 0-.15.027-.208.079-.048.051-.086.16-.109.324h-.194v-2.425h.194c.045.249.096.47.155.66.06.193.13.353.21.481.153.253.387.463.698.628.314.166.66.248 1.04.248.427 0 .77-.116 1.026-.347.254-.232.383-.5.383-.81a1.1 1.1 0 0 0-.141-.522 1.572 1.572 0 0 0-.449-.5c-.128-.098-.5-.319-1.11-.663-.291-.163-.546-.315-.766-.452a6.043 6.043 0 0 1-.53-.361 2.247 2.247 0 0 1-.58-.668 1.662 1.662 0 0 1-.197-.803c0-.504.194-.942.584-1.31.39-.37.885-.552 1.486-.552.383 0 .782.092 1.195.276.087.039.167.069.242.094a.599.599 0 0 0 .17.037.32.32 0 0 0 .218-.078c.06-.053.107-.162.143-.33h.192ZM50.342 31.863v.193h-3.03v-.193h.25c.29 0 .501-.085.637-.256.083-.11.124-.38.124-.803v-4.57c0-.358-.023-.595-.068-.711a.472.472 0 0 0-.213-.224.986.986 0 0 0-.48-.125h-.25v-.192h3.03v.192h-.254c-.287 0-.497.085-.632.256-.088.114-.13.383-.13.803v4.571c0 .358.023.595.067.71.032.08.105.155.22.225a.94.94 0 0 0 .475.124h.254ZM50.463 24.982h1.92l4.325 5.308v-4.081c0-.437-.048-.707-.146-.816-.125-.146-.33-.219-.611-.219h-.246v-.192h2.464v.192h-.25c-.296 0-.508.091-.636.27a.711.711 0 0 0-.084.275c-.021.13-.032.294-.032.488v5.963h-.189l-4.663-5.696v4.357c0 .43.046.701.14.814.133.146.337.218.611.218h.252v.193h-2.465v-.192h.246c.303 0 .516-.091.641-.271a.711.711 0 0 0 .084-.274c.021-.132.032-.294.032-.488V25.91c-.198-.237-.351-.392-.456-.467a1.983 1.983 0 0 0-.477-.223 1.716 1.716 0 0 0-.46-.046v-.192ZM60.552 25.368v2.796h1.554c.404 0 .673-.06.808-.184a.835.835 0 0 0 .223-.335c.053-.142.08-.311.08-.509h.192V29.6h-.192c-.05-.348-.098-.568-.146-.663a.656.656 0 0 0-.311-.286c-.145-.07-.362-.105-.654-.105h-1.554v2.332c0 .315.012.506.039.57a.331.331 0 0 0 .146.16c.071.041.205.063.399.063h1.2c.398 0 .689-.027.865-.08.178-.056.353-.166.527-.332.212-.212.433-.537.662-.976h.209l-.61 1.774h-5.451v-.192h.251c.17 0 .328-.04.474-.12a.442.442 0 0 0 .224-.249c.04-.112.062-.342.062-.686v-4.597c0-.452-.044-.728-.135-.83-.128-.138-.337-.208-.625-.208h-.251v-.192h5.452l.076 1.549h-.203c-.073-.38-.154-.634-.243-.766a.868.868 0 0 0-.392-.318c-.136-.052-.381-.079-.736-.079h-1.94ZM69.743 24.822v2.446h-.193a4.014 4.014 0 0 0-.132-.629 2.2 2.2 0 0 0-.208-.493 1.716 1.716 0 0 0-.685-.66c-.301-.166-.611-.248-.932-.248-.361 0-.66.11-.897.331-.237.221-.354.472-.354.754 0 .213.075.409.224.589.208.258.721.605 1.538 1.043.657.356 1.106.627 1.347.814.24.189.427.411.56.671.134.258.202.529.202.81 0 .53-.209.99-.624 1.38-.416.392-.95.588-1.604.588-.201 0-.395-.016-.579-.047-.105-.014-.327-.076-.67-.188s-.558-.168-.645-.168c-.08 0-.15.027-.209.079-.048.051-.085.16-.108.324h-.194v-2.425h.194c.044.249.096.47.155.66.06.193.13.353.21.481.153.253.386.463.698.628.313.166.66.248 1.04.248.427 0 .769-.116 1.025-.347.255-.232.383-.5.383-.81a1.1 1.1 0 0 0-.14-.522 1.573 1.573 0 0 0-.45-.5c-.128-.098-.5-.319-1.11-.663-.29-.163-.545-.315-.766-.452a6.059 6.059 0 0 1-.529-.361 2.245 2.245 0 0 1-.58-.668 1.66 1.66 0 0 1-.198-.803c0-.504.194-.942.584-1.31.39-.37.885-.552 1.487-.552.383 0 .781.092 1.195.276.087.039.167.069.242.094a.6.6 0 0 0 .169.037.32.32 0 0 0 .219-.078c.06-.053.107-.162.142-.33h.193ZM75.684 24.822v2.446h-.192a4.014 4.014 0 0 0-.132-.629 2.2 2.2 0 0 0-.208-.493 1.716 1.716 0 0 0-.686-.66c-.3-.166-.61-.248-.93-.248-.362 0-.662.11-.898.331-.237.221-.355.472-.355.754 0 .213.075.409.225.589.208.258.72.605 1.538 1.043.657.356 1.106.627 1.346.814.24.189.428.411.561.671.133.258.201.529.201.81 0 .53-.208.99-.623 1.38-.417.392-.95.588-1.604.588-.201 0-.396-.016-.579-.047-.105-.014-.328-.076-.671-.188-.342-.112-.557-.168-.645-.168-.08 0-.15.027-.208.079-.048.051-.085.16-.109.324h-.194v-2.425h.194c.045.249.097.47.155.66.06.193.13.353.21.481.154.253.387.463.698.628.314.166.66.248 1.04.248.428 0 .77-.116 1.026-.347.254-.232.383-.5.383-.81a1.1 1.1 0 0 0-.141-.522 1.572 1.572 0 0 0-.449-.5c-.128-.098-.5-.319-1.11-.663a21.25 21.25 0 0 1-.766-.452 6.043 6.043 0 0 1-.53-.361 2.244 2.244 0 0 1-.58-.668 1.662 1.662 0 0 1-.197-.803c0-.504.194-.942.584-1.31.39-.37.885-.552 1.486-.552.383 0 .782.092 1.195.276.087.039.168.069.242.094a.598.598 0 0 0 .17.037.32.32 0 0 0 .218-.078c.061-.053.107-.162.143-.33h.192ZM81.661 28.445c.488.105.855.27 1.1.5.337.32.506.712.506 1.175 0 .348-.11.684-.331 1.006a1.88 1.88 0 0 1-.915.707c-.39.148-.983.223-1.779.223h-3.338v-.192h.265c.288 0 .5-.095.637-.282.08-.123.12-.38.12-.778v-4.57c0-.442-.05-.72-.152-.83-.135-.153-.336-.23-.605-.23h-.265v-.192h3.057c.562 0 1.02.04 1.373.125.521.126.918.347 1.194.665.274.317.412.684.412 1.097 0 .36-.107.675-.32.951-.211.274-.532.482-.959.625Zm-2.733-.281.438.057.549.016c.51 0 .892-.054 1.144-.162.253-.107.447-.276.584-.504.138-.228.207-.476.207-.743 0-.411-.167-.762-.504-1.056-.335-.293-.828-.441-1.48-.441-.35 0-.664.037-.938.114v2.719Zm0 3.38c.403.095.801.142 1.195.142.625 0 1.104-.141 1.435-.422.333-.284.498-.634.498-1.055 0-.272-.072-.534-.22-.788-.148-.255-.392-.454-.728-.602-.337-.148-.757-.223-1.258-.223H79.3a2.214 2.214 0 0 0-.37.037v2.912ZM88.742 29.688h-2.747l-.47 1.116c-.121.28-.18.484-.18.616 0 .105.05.2.151.287a.721.721 0 0 0 .255.116c.109.026.246.04.413.04v.193h-2.227v-.193c.288-.053.479-.12.573-.204.171-.16.367-.499.59-1.017l2.489-5.82h.181l2.463 5.882c.197.474.377.782.537.924.088.073.187.13.3.173.114.041.24.062.379.062v.193h-2.792v-.193c.139 0 .255-.012.347-.037a.587.587 0 0 0 .223-.103c.1-.08.151-.178.151-.294 0-.153-.07-.395-.207-.726l-.429-1.015Zm-.15-.387-1.197-2.86-1.234 2.86h2.43ZM91.427 24.982h1.92l4.325 5.308v-4.081c0-.437-.048-.707-.146-.816-.125-.146-.33-.219-.611-.219h-.246v-.192h2.464v.192h-.25c-.296 0-.508.091-.636.27a.711.711 0 0 0-.084.275c-.021.13-.032.294-.032.488v5.963h-.189l-4.663-5.696v4.357c0 .43.046.701.14.814.133.146.337.218.612.218h.25v.193h-2.464v-.192h.246c.303 0 .516-.091.641-.271a.711.711 0 0 0 .084-.274c.021-.132.032-.294.032-.488V25.91c-.198-.237-.351-.392-.456-.467a1.982 1.982 0 0 0-.477-.223 1.716 1.716 0 0 0-.46-.046v-.192ZM102.474 28.133l2.608 2.593c.427.427.792.717 1.09.869.299.151.603.24.913.268v.193h-3.365v-.192c.199 0 .344-.034.434-.102.09-.07.136-.144.136-.228a.469.469 0 0 0-.05-.222c-.032-.065-.141-.19-.324-.374l-2.443-2.413v2.28c0 .357.023.594.068.71.032.08.105.154.219.224a.935.935 0 0 0 .473.124h.241v.193h-3.015v-.192h.251c.289 0 .501-.086.636-.257.084-.11.125-.38.125-.803v-4.57c0-.355-.024-.593-.068-.716a.433.433 0 0 0-.214-.22.985.985 0 0 0-.479-.124h-.25v-.192h3.014v.192h-.241a.986.986 0 0 0-.473.12.485.485 0 0 0-.225.25c-.041.113-.062.342-.062.69v2.165l.714-.663c1.022-.936 1.647-1.567 1.873-1.894.094-.136.141-.256.141-.365 0-.077-.036-.146-.111-.209-.073-.062-.195-.094-.37-.094h-.162v-.192h2.6v.192c-.146 0-.285.02-.415.06-.13.04-.285.115-.463.221a4.786 4.786 0 0 0-.668.533l-1.058 1.07-1.08 1.075Z" fill="#DA251D"/></svg>