<svg width="109" height="34" fill="none" xmlns="http://www.w3.org/2000/svg"><path d="M60.633 14.49h-6.46l-.799 1.795c-.254.596-.383 1.086-.383 1.475 0 .517.211.899.627 1.14.244.142.844.251 1.805.325v.506h-6.12v-.506c.658-.099 1.202-.369 1.625-.817.428-.453.953-1.372 1.578-2.776l6.58-14.69h.26l6.64 15.097c.634 1.426 1.152 2.325 1.557 2.692.31.287.747.45 1.302.494v.506h-8.9v-.506h.365c.711 0 1.217-.099 1.509-.3.199-.144.296-.35.296-.62 0-.164-.027-.33-.082-.5-.015-.084-.15-.42-.404-1.019l-.996-2.296Zm-.438-.997L57.451 7.18l-2.826 6.313h5.57ZM81.753 9.772c1.795.416 3.056.918 3.781 1.51 1.047.842 1.566 1.931 1.566 3.268 0 1.414-.567 2.58-1.703 3.504-1.399 1.119-3.425 1.677-6.086 1.677h-9.552v-.515c.862 0 1.457-.082 1.762-.247.314-.157.524-.367.655-.624.125-.26.186-.894.186-1.909V4.238c0-1.013-.061-1.654-.186-1.913a1.372 1.372 0 0 0-.657-.628c-.315-.16-.899-.237-1.76-.237V.943h9.007c2.162 0 3.68.194 4.578.577.9.38 1.603.953 2.118 1.718.52.76.779 1.574.779 2.431 0 .908-.33 1.712-.993 2.42-.66.71-1.824 1.266-3.495 1.683Zm-5.02.707-.013 6.025v.69c0 .494.127.87.38 1.12.246.254.612.383 1.102.383.727 0 1.391-.161 2.006-.488a3.34 3.34 0 0 0 1.407-1.427 4.5 4.5 0 0 0 .486-2.087c0-.878-.179-1.661-.552-2.36-.367-.698-.904-1.184-1.618-1.455-.715-.281-1.782-.411-3.199-.4Zm0-1.082c1.317 0 2.288-.146 2.914-.443.624-.296 1.102-.71 1.437-1.25.334-.538.507-1.225.507-2.057 0-.832-.172-1.518-.494-2.052a3.158 3.158 0 0 0-1.415-1.213c-.612-.276-1.593-.414-2.942-.404l-.008 7.42ZM100.684 9.772c1.798.416 3.062.918 3.783 1.51 1.041.842 1.562 1.931 1.562 3.268 0 1.414-.568 2.58-1.705 3.504-1.394 1.119-3.423 1.677-6.08 1.677H88.69v-.515c.87 0 1.453-.082 1.766-.247.308-.157.528-.367.647-.624.127-.26.187-.894.187-1.909V4.238c0-1.013-.06-1.654-.187-1.913-.119-.265-.34-.477-.658-.628-.313-.16-.897-.237-1.755-.237V.943h9.011c2.155 0 3.68.194 4.57.577.898.38 1.608.953 2.127 1.718.513.76.774 1.574.774 2.431 0 .908-.333 1.712-.99 2.42-.663.71-1.83 1.266-3.499 1.683Zm-5.018.707-.013 6.025v.69c0 .494.125.87.372 1.12.25.254.618.383 1.11.383a4.2 4.2 0 0 0 2.007-.488 3.327 3.327 0 0 0 1.401-1.427c.328-.624.491-1.319.491-2.087 0-.878-.185-1.661-.55-2.36-.371-.698-.911-1.184-1.623-1.455-.71-.281-1.78-.411-3.195-.4Zm0-1.082c1.316 0 2.281-.146 2.91-.443.628-.296 1.106-.71 1.441-1.25.332-.538.5-1.225.5-2.057 0-.832-.167-1.518-.495-2.052a3.122 3.122 0 0 0-1.409-1.213c-.61-.276-1.592-.414-2.946-.404l-.001 7.42ZM47.21 10.307c0 .089-.005.178-.01.266-1.61-.68-4.34-1.186-7.616-1.186-9.665 0-20.183 8.534-24.54 9.548-3.635-.64-6.785-1.65-9.165-2.915 1.503.518 3.6.832 5.365.832 9.072 0 17.904-5.958 22.96-8.644 4.651-2.465 7.264-2.946 10.337-2.291 1.703 1.31 2.668 2.804 2.668 4.39ZM4.327 15.085c-2.031-1.4-3.197-3.033-3.197-4.778C1.13 5.12 11.446.913 24.167.913c7.9 0 14.869 1.62 19.02 4.09-1.19-.36-2.777-.569-5.048-.569-7.789 0-17.342 5.705-21.833 7.803-4.386 2.044-8.995 3.771-11.978 2.848Zm42.845-4.257c-.663 4.95-10.708 8.873-23.006 8.873-.372 0-.741-.004-1.108-.011 13.296-7.1 17.84-9.382 24.114-8.862Z" fill="#DA251D"/><path d="M0 10.307c0 5.685 10.84 10.31 24.167 10.31 13.328 0 24.172-4.625 24.172-10.31 0-2.767-2.525-5.363-7.108-7.307-4.56-1.934-10.617-3-17.064-3C10.84 0 0 4.623 0 10.307Zm.169 0C.169 4.724 10.935.179 24.167.179c6.427 0 12.463 1.06 17.005 2.99 4.513 1.913 7 4.446 7 7.138 0 5.586-10.768 10.127-24.005 10.127-13.232 0-23.998-4.541-23.998-10.127Z" fill="#DA251D"/><path fill-rule="evenodd" clip-rule="evenodd" d="M106.14 28.959v-1.2c0-.152-.018-.28-.051-.383a.496.496 0 0 0-.147-.235.74.74 0 0 0-.266-.12 1.562 1.562 0 0 0-.399-.044c-.011 0-.019-.01-.025-.027a.316.316 0 0 1-.01-.09c0-.07.012-.104.035-.104h2.856a.03.03 0 0 0 .006.017.031.031 0 0 1 .006.018c.006.006.01.014.01.025.002.01.002.021.002.033 0 .041-.002.07-.008.09-.006.02-.016.033-.027.038-.123 0-.235.016-.34.045a.83.83 0 0 0-.278.142c-.163.128-.245.326-.245.594v3.392a.77.77 0 0 0 .07.344.623.623 0 0 0 .21.24c.093.063.196.11.307.141.112.03.235.045.369.045.017 0 .029.01.037.027.006.02.009.049.009.09.001.07-.011.104-.034.104h-3.019c-.018 0-.03-.01-.037-.027a.316.316 0 0 1-.01-.09c0-.034.004-.061.01-.079.007-.017.019-.025.036-.025.164 0 .304-.016.422-.045a.784.784 0 0 0 .29-.13.454.454 0 0 0 .167-.227c.037-.1.054-.222.054-.368v-1.34l-.268.175a2.091 2.091 0 0 1-.268.155 3.484 3.484 0 0 1-.338.148c-.245.093-.548.14-.909.14-.642 0-1.166-.117-1.574-.35a2.432 2.432 0 0 1-.532-.404 1.944 1.944 0 0 1-.366-.517 2.718 2.718 0 0 1-.279-1.2v-2.518c0-.146-.018-.268-.049-.37a.601.601 0 0 0-.138-.236.654.654 0 0 0-.262-.12 1.603 1.603 0 0 0-.402-.044c-.012 0-.02-.01-.026-.027a.368.368 0 0 1 0-.163c.006-.02.014-.031.026-.031h2.856l.007.002c.004.004.01.01.016.021v.07c0 .041-.002.07-.008.09-.006.02-.015.033-.027.038-.286 0-.499.064-.639.193-.142.128-.212.32-.212.577v2.366c0 .122.004.239.01.346.007.109.019.208.037.295.011.093.031.18.058.264.027.086.058.167.093.249.064.146.136.272.218.377.079.107.167.194.26.264s.181.128.262.173a.912.912 0 0 0 .228.095l.501.094c.216 0 .423-.022.622-.063a2.52 2.52 0 0 0 .567-.194c.18-.087.315-.192.404-.317a.724.724 0 0 0 .132-.429Zm-7.647.944v-.63c0-.14-.011-.256-.037-.347a.351.351 0 0 0-.126-.2.673.673 0 0 0-.09-.056.495.495 0 0 0-.131-.049 1.472 1.472 0 0 0-.35-.035c-.017 0-.03-.012-.037-.033a.393.393 0 0 1-.01-.095c0-.03.004-.053.01-.068.006-.018.014-.025.025-.025h2.611c.024 0 .035.035.035.105a.32.32 0 0 1-.007.08c-.006.018-.016.03-.028.036-.174 0-.314.023-.42.07a.357.357 0 0 0-.12.072.268.268 0 0 0-.077.114.754.754 0 0 0-.053.187 1.632 1.632 0 0 0-.017.256v.56a2.273 2.273 0 0 1-.175.886c-.058.14-.134.274-.224.4a2.462 2.462 0 0 1-.313.357c-.116.117-.252.22-.407.31a3.338 3.338 0 0 1-1.127.396 4.326 4.326 0 0 1-.692.052c-.32 0-.614-.03-.882-.093a2.9 2.9 0 0 1-.726-.268 2.506 2.506 0 0 1-.55-.408 2.314 2.314 0 0 1-.395-.513 2.786 2.786 0 0 1-.225-.587 2.342 2.342 0 0 1-.078-.602v-3.987h-.617a4.196 4.196 0 0 1-.443-.07 10.344 10.344 0 0 1-.606-.151 2.141 2.141 0 0 1-.587-.245 1.706 1.706 0 0 1-.44-.384l1.12-.968c0 .076.027.165.08.266.052.101.13.212.234.328.105.117.222.226.354.325.13.101.276.194.439.282.157.087.31.153.462.2.15.044.296.068.436.068h.722v4.196c0 .309.027.581.08.814.054.235.136.433.247.596.11.164.225.298.342.403.118.105.24.18.369.227.128.052.246.091.357.115.109.025.208.037.296.037a2.247 2.247 0 0 0 .699-.117c.134-.04.262-.107.384-.2.123-.091.24-.208.35-.348.111-.146.195-.324.253-.534.056-.21.085-.45.085-.725Zm-8.754-.175c0 .03-.002.06-.006.095a.91.91 0 0 0-.005.104.805.805 0 0 0-.03.128c-.007.05-.017.105-.029.163-.023.099-.054.2-.093.305a7.973 7.973 0 0 1-.128.324c-.053.111-.111.206-.173.288-.064.081-.13.15-.2.202h.524c.496 0 .915.04 1.261.122.344.082.616.204.814.368l-1.352.804a.874.874 0 0 0-.235-.375 1.164 1.164 0 0 0-.43-.243 3.596 3.596 0 0 0-.545-.132 3.657 3.657 0 0 0-.573-.043 2.486 2.486 0 0 1-.259.119 5.096 5.096 0 0 1-.383.138 2.471 2.471 0 0 1-.85.151c-.251 0-.488-.017-.71-.052a3.53 3.53 0 0 1-1.16-.395c-.159-.093-.299-.2-.415-.322a2.126 2.126 0 0 1-.329-.377 2.456 2.456 0 0 1-.23-.427 3.508 3.508 0 0 1-.078-.228 1.886 1.886 0 0 1-.05-.227 1.857 1.857 0 0 1-.047-.466v-4.395c0-.28-.07-.466-.21-.56a.92.92 0 0 0-.288-.095 2.525 2.525 0 0 0-.435-.033c-.012 0-.02-.01-.025-.027a.326.326 0 0 1 0-.163c.006-.02.013-.031.025-.031h3.019c.012 0 .021.008.027.025a.211.211 0 0 1 .008.068c0 .041-.004.07-.01.09-.007.02-.02.033-.037.038-.169 0-.313.012-.431.034a1.044 1.044 0 0 0-.291.095.468.468 0 0 0-.158.213.973.973 0 0 0-.052.346v4.255c0 .717.16 1.253.48 1.61.318.356.796.535 1.431.535.245 0 .478-.03.698-.086.222-.058.427-.142.62-.252.198-.111.36-.24.485-.387.127-.146.22-.313.284-.5.023-.087.047-.172.068-.256a3.45 3.45 0 0 0 .097-.501c.006-.082.01-.163.01-.245 0-.163-.014-.309-.043-.44a1.438 1.438 0 0 0-.12-.352 2.27 2.27 0 0 0-.154-.267.839.839 0 0 0-.161-.176 4.12 4.12 0 0 0-.14-.12.496.496 0 0 0-.105-.067v-2.75a.954.954 0 0 0-.052-.345.42.42 0 0 0-.158-.204c-.14-.093-.384-.14-.734-.14-.017 0-.03-.011-.037-.033a.398.398 0 0 1-.01-.095c0-.029.004-.052.01-.068.006-.017.014-.025.025-.025h3.02c.017 0 .029.008.036.025.006.018.01.045.01.08a.268.268 0 0 1-.01.08.058.058 0 0 1-.037.036c-.169 0-.314.012-.435.033a.921.921 0 0 0-.287.096.405.405 0 0 0-.167.21.958.958 0 0 0-.055.35v4.37Zm-12.624-.303h3.147c1.19 0 1.982.163 2.378.49l-1.305.804a1.293 1.293 0 0 0-.142-.19 1.8 1.8 0 0 0-.231-.206 1.587 1.587 0 0 0-.303-.204 3.677 3.677 0 0 0-.373-.17 2.404 2.404 0 0 0-.428-.104 3.047 3.047 0 0 0-.47-.035h-2.273v1.34c0 .135.023.251.068.348a.564.564 0 0 0 .2.235c.093.064.196.111.307.142.11.03.23.045.358.045.017 0 .029.01.037.027.005.02.01.049.01.09 0 .07-.012.104-.036.104H75.04c-.011 0-.02-.01-.025-.027a.322.322 0 0 1-.01-.09c0-.058.012-.093.035-.104.163 0 .303-.016.422-.045a.783.783 0 0 0 .29-.13.568.568 0 0 0 .163-.231.98.98 0 0 0 .058-.363v-4.279c0-.163.013-.32.043-.472.027-.151.067-.297.12-.437.052-.145.122-.285.208-.417.087-.134.188-.259.305-.375.116-.117.25-.222.4-.313a2.61 2.61 0 0 1 .497-.235c.187-.07.385-.123.599-.158.212-.035.439-.052.684-.052.244 0 .474.017.69.052.213.035.411.088.592.158.186.064.353.142.5.235.147.091.275.196.386.313.11.11.208.23.29.36.083.13.153.27.211.42a2.429 2.429 0 0 1 .175.921v.338a2.576 2.576 0 0 0 .023.256c.006.036.012.071.02.104a.465.465 0 0 0 .027.095.443.443 0 0 0 .245.21 1.08 1.08 0 0 0 .198.047c.04.011.083.017.128.019.045.004.087.004.128.004.012 0 .022.012.027.033a.406.406 0 0 1 .008.095c0 .04-.002.072-.008.095-.005.022-.015.033-.027.033h-2.646c-.012 0-.02-.01-.025-.027a.326.326 0 0 1-.01-.09c0-.093.012-.14.035-.14.134 0 .249-.01.342-.036a.52.52 0 0 0 .23-.115.5.5 0 0 0 .12-.221c.029-.095.043-.216.043-.361v-.257c0-.63-.105-1.107-.315-1.434-.222-.326-.455-.536-.7-.63a2.263 2.263 0 0 0-.355-.104 1.608 1.608 0 0 0-.663 0c-.118.023-.24.058-.369.105-.122.047-.24.122-.357.227a2.033 2.033 0 0 0-.33.402c-.111.163-.193.367-.247.608-.053.241-.08.517-.08.826v2.471Zm-3.73-4.056v4.371c0 .21-.023.414-.072.614a2.52 2.52 0 0 1-.231.587 2.134 2.134 0 0 1-.383.524c-.157.158-.34.297-.55.42a2.884 2.884 0 0 1-.724.268 3.923 3.923 0 0 1-.884.093c-.641 0-1.177-.116-1.609-.35a2.443 2.443 0 0 1-.56-.408 2.113 2.113 0 0 1-.384-.512 2.949 2.949 0 0 1-.225-.597 2.357 2.357 0 0 1-.078-.604v-4.418c0-.28-.07-.466-.21-.56a.916.916 0 0 0-.287-.095 2.525 2.525 0 0 0-.436-.033c-.011 0-.019-.01-.025-.027a.326.326 0 0 1 0-.163c.006-.02.014-.031.025-.031h3.02c.011 0 .02.008.027.025a.212.212 0 0 1 .007.068c0 .041-.003.07-.01.09-.007.02-.019.033-.036.038-.17 0-.313.012-.431.034a1.043 1.043 0 0 0-.292.095.468.468 0 0 0-.157.213.975.975 0 0 0-.053.346v4.29c0 .437.047.8.14 1.092.094.29.233.505.42.645.192.134.385.235.579.305a1.753 1.753 0 0 0 .901.075c.11-.019.227-.048.35-.089a1.21 1.21 0 0 0 .36-.221c.116-.102.228-.233.34-.397.104-.157.186-.355.242-.592.055-.235.084-.51.084-.818v-4.29a.957.957 0 0 0-.053-.344.421.421 0 0 0-.157-.204c-.14-.093-.385-.14-.734-.14l-.012-.221h3.019c.017 0 .029.008.037.025.006.018.01.045.01.08a.268.268 0 0 1-.01.08.058.058 0 0 1-.037.036c-.326 0-.56.047-.7.14a.405.405 0 0 0-.167.21.957.957 0 0 0-.054.35Zm-10.328 1.83h-2.401v2.471c0 .618.105 1.084.315 1.399.105.163.217.295.336.396.118.101.24.175.363.222.128.04.25.072.37.095a1.76 1.76 0 0 0 .668 0c.112-.023.233-.055.36-.095.123-.041.242-.111.358-.21a1.89 1.89 0 0 0 .33-.385c.105-.151.185-.34.238-.565.052-.226.077-.484.077-.775v-.035c0-.14-.011-.257-.03-.35a.563.563 0 0 0-.086-.21.307.307 0 0 0-.082-.056.771.771 0 0 0-.116-.037.851.851 0 0 0-.146-.027 1.75 1.75 0 0 0-.18-.008c-.018 0-.03-.012-.038-.035a.456.456 0 0 1-.01-.105c0-.03.005-.05.01-.064a.054.054 0 0 1 .026-.03h2.436c.011 0 .021.01.027.028.006.02.008.049.008.09a.28.28 0 0 1-.008.08c-.006.019-.016.03-.027.036a1.72 1.72 0 0 0-.235.015.98.98 0 0 0-.173.043.234.234 0 0 0-.115.066.356.356 0 0 0-.072.12 1.999 1.999 0 0 0-.047.443v.152a2.614 2.614 0 0 1-.034.432c-.018.07-.035.14-.055.21a2.252 2.252 0 0 1-.28.602 2.851 2.851 0 0 1-.295.365 2.27 2.27 0 0 1-.396.315 2.733 2.733 0 0 1-.501.244c-.187.07-.385.123-.597.158a4.246 4.246 0 0 1-.685.052c-.642 0-1.178-.116-1.61-.35a2.443 2.443 0 0 1-.559-.408 2.11 2.11 0 0 1-.384-.512 2.943 2.943 0 0 1-.226-.597 2.357 2.357 0 0 1-.077-.604v-4.336c0-.146-.016-.268-.045-.367a.461.461 0 0 0-.142-.228.615.615 0 0 0-.256-.132 1.533 1.533 0 0 0-.397-.043c-.017 0-.029-.01-.037-.027a.326.326 0 0 1-.01-.09c0-.034.005-.061.01-.079.008-.017.02-.025.037-.025h2.845c.023 0 .035.035.035.105a.268.268 0 0 1-.01.08.058.058 0 0 1-.037.036 1.28 1.28 0 0 0-.348.043.777.777 0 0 0-.27.132.604.604 0 0 0-.173.245c-.04.1-.06.216-.06.35v1.375h3.276c.07 0 .128 0 .178.002.049 0 .09.004.124.01l.4.015.137.008a2.757 2.757 0 0 1 .443.035c.035.006.093.02.174.041.082.021.187.047.315.076.123.035.233.075.334.124.1.05.19.109.272.179l-1.305.804a1.077 1.077 0 0 0-.142-.196 2.369 2.369 0 0 0-.231-.212 2.534 2.534 0 0 0-1.113-.466 2.986 2.986 0 0 0-.46-.035Zm-6.83 2.704v-.63c0-.14-.012-.256-.037-.347a.352.352 0 0 0-.127-.2.66.66 0 0 0-.09-.056.493.493 0 0 0-.131-.049 1.472 1.472 0 0 0-.35-.035c-.017 0-.029-.012-.037-.033a.4.4 0 0 1-.01-.095c0-.03.004-.053.01-.068.006-.018.014-.025.026-.025h2.61c.024 0 .035.035.035.105a.273.273 0 0 1-.007.08c-.006.018-.016.03-.027.036a1.05 1.05 0 0 0-.42.07.356.356 0 0 0-.12.072.268.268 0 0 0-.078.114.752.752 0 0 0-.053.187 1.62 1.62 0 0 0-.017.256v.56a2.28 2.28 0 0 1-.175.886c-.058.14-.134.274-.223.4a2.473 2.473 0 0 1-.313.357c-.117.117-.253.22-.408.31a3.346 3.346 0 0 1-1.127.396 4.338 4.338 0 0 1-.692.052c-.32 0-.614-.03-.882-.093a2.903 2.903 0 0 1-.726-.268 2.51 2.51 0 0 1-.55-.408 2.314 2.314 0 0 1-.394-.513 2.786 2.786 0 0 1-.226-.587 2.342 2.342 0 0 1-.078-.602v-3.987h-.617a4.18 4.18 0 0 1-.443-.07 10.344 10.344 0 0 1-.606-.151 2.141 2.141 0 0 1-.587-.245 1.708 1.708 0 0 1-.44-.384l1.12-.968c0 .076.027.165.08.266.052.101.13.212.235.328.105.117.221.226.353.325.13.101.276.194.44.282.157.087.31.153.462.2.15.044.295.068.435.068h.722v4.196c0 .309.028.581.08.814.054.235.136.433.247.596a2.2 2.2 0 0 0 .342.403c.118.105.24.18.369.227.128.052.247.091.357.115.11.025.208.037.296.037a2.26 2.26 0 0 0 .7-.117c.133-.04.261-.107.384-.2.122-.091.239-.208.35-.348.11-.146.194-.324.252-.534.056-.21.086-.45.086-.725ZM43.217 26.5a1.982 1.982 0 0 0 .152.769c.053.128.115.245.187.352.072.104.157.202.256.289.198.163.42.245.665.245a.83.83 0 0 0 .402-.113c.041-.026.04-.021.065-.04a.79.79 0 0 0 .072-.05c.02-.012.083-.055.083-.055a.323.323 0 0 1 .06-.036c.003-.005-.006.005.004-.002a.059.059 0 0 1 .025-.007c.011 0 .023.006.035.015a.276.276 0 0 1 .035.043.191.191 0 0 1 .027.06c.008.024.014.05.02.08l-.393.458c-.128.148-.255.288-.377.416l-.501.501a3.477 3.477 0 0 1-.548-.233c-.245-.116-.49-.338-.734-.664a1.4 1.4 0 0 1-.162-.262 2.548 2.548 0 0 1-.118-.298 2.43 2.43 0 0 1-.093-.688c0-.268.029-.522.085-.761.058-.239.142-.462.253-.672a2.712 2.712 0 0 1 .955-1.038c.105-.064.214-.124.325-.18.11-.057.223-.105.34-.146a2.083 2.083 0 0 1 .71-.117h.304c.344 0 .659.041.944.125.286.081.542.208.77.377a2.856 2.856 0 0 1 1.002 1.282c.21.536.315 1.072.315 1.608 0 .735-.187 1.364-.56 1.889a4.519 4.519 0 0 1-.567.684 3.936 3.936 0 0 1-.657.516c-.11.064-.221.125-.328.183a9.02 9.02 0 0 1-.606.286c-.097.038-.19.073-.278.103l-.227.066c-.07.021-.134.038-.193.05a2.44 2.44 0 0 1-.167.045l-.16.037.432-.035c.041 0 .095-.002.163-.008l.233-.016c.088 0 .162-.002.22-.005a2.2 2.2 0 0 1 .13-.006c.158 0 .307.004.449.01.142.007.284.013.418.03.015 0 .06.006.053.005-.015-.002.016 0 .026.002.338.04.29.042.71.104.145.03.289.066.429.111s.276.093.41.146c.14.058.272.12.394.184.122.066.235.136.34.212l-1.399.63a4.41 4.41 0 0 0-.627-.527 3.022 3.022 0 0 0-.62-.324 3.997 3.997 0 0 0-.649-.158 4.565 4.565 0 0 0-.703-.052l-.431.011h-.455c-.11 0-.206 0-.284.002a1.15 1.15 0 0 0-.17.01 1.32 1.32 0 0 0-.146.008 3.88 3.88 0 0 0-.181.027c-.064.006-.13.014-.2.025l-.22.033-.242.037a5.25 5.25 0 0 0-.27.045l-.572.105v-1.854h1.19v1.178h.256c.35 0 .685-.04 1.006-.117.322-.078.631-.198.929-.361.291-.157.555-.344.794-.563.237-.218.447-.469.628-.754.18-.28.315-.58.404-.898.087-.318.132-.653.132-1.002a4.89 4.89 0 0 0-.08-.91 3.541 3.541 0 0 0-.071-.291 2.88 2.88 0 0 0-.444-.99 1.912 1.912 0 0 0-.328-.387 1.987 1.987 0 0 0-.89-.462c-.169-.042-.35-.061-.542-.061-.134.012-.262.04-.386.087a1.92 1.92 0 0 0-.965.822 2.23 2.23 0 0 0-.19.402c-.05.14-.085.286-.102.438Zm-3.146 2.133v.617c0 .1.005.187.017.26.012.077.03.137.052.183a.371.371 0 0 0 .098.133c.04.036.089.066.147.089.03.006.059.014.092.023.03.01.066.018.106.024a2.177 2.177 0 0 0 .257.023c.011 0 .021.01.027.027.006.02.008.049.008.09 0 .04-.002.07-.008.089-.006.021-.016.033-.027.039h-2.646c-.024 0-.035-.035-.035-.105 0-.082.011-.128.035-.14.134 0 .248-.012.342-.037a.52.52 0 0 0 .229-.115.507.507 0 0 0 .12-.225c.03-.1.043-.218.043-.358v-.5c0-.24-.017-.453-.052-.642a2 2 0 0 0-.158-.501c-.128-.291-.291-.501-.49-.63a1.587 1.587 0 0 0-.489-.244.356.356 0 0 1-.07-.016c-.035-.008-.081-.02-.14-.031a2.127 2.127 0 0 0-.159-.027l-.132-.02c-.227 0-.441.024-.64.072a2.1 2.1 0 0 0-.56.22c-.175.099-.306.208-.393.326a.653.653 0 0 0-.132.396v3.497c0 .135.023.251.068.348a.564.564 0 0 0 .2.235c.093.064.196.111.307.142.11.03.229.045.357.045.018 0 .03.01.037.027.006.02.01.049.01.09 0 .07-.012.104-.035.104h-3.02c-.01 0-.018-.01-.024-.027a.326.326 0 0 1-.01-.09c0-.058.011-.093.035-.104.163 0 .303-.016.421-.045a.782.782 0 0 0 .29-.13.567.567 0 0 0 .163-.231.98.98 0 0 0 .058-.363v-5.712c0-.146-.015-.268-.044-.367a.462.462 0 0 0-.142-.228.615.615 0 0 0-.257-.132 1.531 1.531 0 0 0-.396-.043c-.017 0-.03-.01-.037-.027a.326.326 0 0 1-.01-.09c0-.034.004-.061.01-.079.008-.017.02-.025.037-.025h2.844c.024 0 .035.035.035.105a.268.268 0 0 1-.01.08.058.058 0 0 1-.036.036 1.28 1.28 0 0 0-.348.043.777.777 0 0 0-.27.132.603.603 0 0 0-.173.245c-.04.1-.06.216-.06.35v1.352c0 .006 0 .01.002.012 0 .002.004.005.01.011l.005.006.006.006.245-.175c.081-.058.175-.115.278-.167.1-.053.211-.101.328-.148.245-.093.536-.14.874-.14.25 0 .484.018.698.049.215.033.41.08.584.138.181.07.344.146.49.231a1.9 1.9 0 0 1 .385.293c.11.111.208.232.29.36.08.13.147.27.2.422.028.07.052.141.073.217.02.074.037.15.054.225a2.912 2.912 0 0 1 .036.502Zm-12.613.792h3.147c1.19 0 1.982.163 2.378.49l-1.305.804a1.285 1.285 0 0 0-.142-.19 1.794 1.794 0 0 0-.231-.206 1.585 1.585 0 0 0-.303-.204 3.68 3.68 0 0 0-.373-.17 2.405 2.405 0 0 0-.428-.104 3.047 3.047 0 0 0-.47-.035h-2.273v1.34c0 .135.023.251.068.348a.564.564 0 0 0 .2.235c.093.064.196.111.307.142.11.03.23.045.357.045.018 0 .03.01.037.027.006.02.01.049.01.09 0 .07-.012.104-.035.104h-3.019c-.011 0-.02-.01-.025-.027a.326.326 0 0 1-.01-.09c0-.058.012-.093.035-.104.163 0 .303-.016.422-.045a.782.782 0 0 0 .29-.13.567.567 0 0 0 .163-.231.983.983 0 0 0 .058-.363v-4.279a2.507 2.507 0 0 1 .163-.91c.052-.144.122-.284.208-.416.087-.134.188-.259.305-.375.116-.117.25-.222.4-.313.152-.093.317-.171.497-.235.187-.07.385-.123.599-.158.212-.035.439-.052.684-.052.244 0 .474.017.69.052.213.035.411.088.592.158.186.064.353.142.5.235.147.091.275.196.386.313.11.11.208.23.29.36.083.13.153.27.21.42a2.437 2.437 0 0 1 .176.921v.339a2.575 2.575 0 0 0 .023.256c.006.035.012.07.02.103a.457.457 0 0 0 .027.095.442.442 0 0 0 .245.21 1.075 1.075 0 0 0 .198.047c.04.011.083.017.128.019.045.004.087.004.128.004.012 0 .022.012.027.033a.411.411 0 0 1 .008.095.41.41 0 0 1-.008.095c-.005.022-.015.033-.027.033H30.14c-.012 0-.02-.01-.025-.027a.326.326 0 0 1-.01-.09c0-.093.012-.14.035-.14.134 0 .249-.01.342-.036a.52.52 0 0 0 .23-.115.502.502 0 0 0 .12-.221c.029-.095.043-.216.043-.361v-.257c0-.63-.105-1.107-.315-1.434-.222-.326-.455-.536-.7-.63a2.262 2.262 0 0 0-.355-.104 1.609 1.609 0 0 0-.663 0c-.118.023-.24.058-.369.105-.122.047-.24.122-.357.227a2.033 2.033 0 0 0-.33.402c-.111.163-.193.368-.247.608-.053.241-.08.517-.08.826v2.471Zm-2.96.408c0 .228-.04.443-.117.65-.078.203-.198.4-.362.586a2.89 2.89 0 0 1-.55.488c-.21.145-.446.27-.709.375-.513.21-1.049.314-1.608.314a5.87 5.87 0 0 1-.568-.027 4.24 4.24 0 0 1-.505-.078 3.324 3.324 0 0 1-.862-.314 4.64 4.64 0 0 1-.614-.395 1.837 1.837 0 0 1-.377-.386 6.426 6.426 0 0 1-.216-.335.988.988 0 0 1-.11-.237l1.282-.466c.029.128.068.262.118.398.05.138.115.278.197.418a1.924 1.924 0 0 0 .629.723c.064.052.134.097.208.132.076.037.153.066.235.09.076.028.157.05.243.062.083.013.17.019.258.019.437 0 .803-.056 1.094-.167.293-.11.515-.276.666-.498.146-.221.255-.458.325-.709.072-.25.107-.514.107-.794a3.28 3.28 0 0 0-.245-.84 1.118 1.118 0 0 0-.212-.291 1.853 1.853 0 0 0-.336-.256 1.773 1.773 0 0 0-.462-.185 3.483 3.483 0 0 0-.61-.095h-.443a3.79 3.79 0 0 0-.298.014c-.099.01-.198.02-.297.032-.099.018-.198.041-.299.069-.1.029-.202.06-.307.095-.198.07-.361.159-.491.27-.133.11-.232.243-.302.394l-1.259-.77c.175-.145.428-.256.76-.33.33-.075.738-.112 1.222-.112h1.655c.146 0 .28-.006.404-.018.123-.011.237-.029.342-.052a.883.883 0 0 0 .286-.124.988.988 0 0 0 .25-.237.91.91 0 0 0 .113-.166c.033-.062.062-.132.086-.207a1.56 1.56 0 0 0 .052-.238c.012-.083.018-.17.018-.264a1.612 1.612 0 0 0-.21-.792 1.525 1.525 0 0 0-.56-.572 1.423 1.423 0 0 0-.769-.221c-.577 0-1.063.161-1.459.482-.396.322-.703.806-.919 1.453h-.245l.315-2.273h.326c.024.076.045.136.063.183.019.046.036.08.054.097.017.023.04.039.072.046a.46.46 0 0 0 .114.012c.088 0 .177-.012.27-.035.092-.023.185-.058.278-.105.053-.023.1-.047.142-.068.04-.023.08-.043.115-.06.04-.012.08-.025.116-.04a1.333 1.333 0 0 1 .398-.093c.117-.013.26-.019.43-.019.262 0 .507.02.736.06.228.041.441.104.64.185a2.176 2.176 0 0 1 .92.676c.111.146.193.297.247.455.052.157.08.32.08.49 0 .262-.041.489-.125.68a1.06 1.06 0 0 1-.388.462c-.17.116-.325.212-.465.287-.141.074-.27.127-.386.156.07.011.155.035.254.068.1.035.212.077.34.13.128.052.259.128.393.23.132.098.266.224.4.376.07.076.132.157.184.245.055.087.102.18.142.28.035.099.063.206.08.322.017.115.025.237.025.365Zm-9.163-.105c0 .03-.002.06-.006.096a.886.886 0 0 0-.006.102.793.793 0 0 0-.029.129c-.007.05-.017.105-.029.163-.023.099-.054.2-.093.305a8.057 8.057 0 0 1-.128.324c-.053.111-.111.206-.173.288-.064.081-.13.15-.2.202h.524c.496 0 .915.04 1.261.122.344.082.616.204.814.368l-1.352.804a.875.875 0 0 0-.235-.375 1.162 1.162 0 0 0-.43-.243 3.596 3.596 0 0 0-.545-.132 3.658 3.658 0 0 0-.574-.043 2.456 2.456 0 0 1-.258.119 5.106 5.106 0 0 1-.383.138 2.478 2.478 0 0 1-.85.151c-.251 0-.488-.017-.71-.052a3.542 3.542 0 0 1-1.16-.395c-.159-.093-.299-.2-.415-.322a2.129 2.129 0 0 1-.329-.377 2.455 2.455 0 0 1-.23-.427 3.466 3.466 0 0 1-.078-.228 1.877 1.877 0 0 1-.05-.227 1.827 1.827 0 0 1-.038-.233 3.23 3.23 0 0 1-.01-.233v-4.395c0-.28-.07-.466-.21-.56a.922.922 0 0 0-.287-.095 2.525 2.525 0 0 0-.435-.033c-.012 0-.02-.01-.025-.027a.325.325 0 0 1 0-.163c.006-.02.013-.031.025-.031h3.019c.012 0 .021.008.027.025a.212.212 0 0 1 .008.068c0 .041-.004.07-.01.09-.008.02-.02.033-.037.038-.169 0-.313.012-.431.034a1.046 1.046 0 0 0-.291.095.468.468 0 0 0-.158.213.973.973 0 0 0-.052.346v4.255c0 .717.159 1.253.48 1.61.318.356.796.535 1.431.535.245 0 .478-.03.698-.086.221-.058.427-.142.62-.252.198-.111.36-.24.485-.387.127-.146.22-.313.284-.5.023-.087.047-.172.068-.256a3.5 3.5 0 0 0 .097-.501c.006-.082.01-.163.01-.245 0-.163-.014-.309-.043-.44a1.437 1.437 0 0 0-.12-.352 2.236 2.236 0 0 0-.154-.267.839.839 0 0 0-.161-.176 4.024 4.024 0 0 0-.14-.12.498.498 0 0 0-.105-.067v-2.75a.955.955 0 0 0-.052-.345.42.42 0 0 0-.158-.204c-.14-.093-.384-.14-.734-.14-.018 0-.03-.011-.037-.033a.399.399 0 0 1-.01-.095c0-.029.004-.052.01-.068.006-.017.014-.025.025-.025h3.02c.017 0 .028.008.036.025.006.018.01.045.01.08a.265.265 0 0 1-.01.08.058.058 0 0 1-.037.036c-.169 0-.314.012-.435.034a.918.918 0 0 0-.287.095.404.404 0 0 0-.167.21.958.958 0 0 0-.055.35v4.37Zm-9.302-4.802 1.003 1.13-3.637 2.95 4.371 2.121L7.7 33.4h-.117a.08.08 0 0 1-.054-.017.112.112 0 0 1-.027-.053l-.035-.314c0-.047 0-.086-.002-.115a.226.226 0 0 0-.01-.072.613.613 0 0 0-.008-.085c-.005-.041-.015-.09-.027-.148a.705.705 0 0 0-.046-.132.406.406 0 0 0-.082-.113.763.763 0 0 0-.14-.14L2 29.728l3.637-2.995a.589.589 0 0 0 .08-.115.33.33 0 0 0 .036-.095l-.023-.07a.259.259 0 0 0-.025-.04.233.233 0 0 0-.033-.042l-.105-.128-.898-.91.676-.675a22.112 22.112 0 0 1 .805-.793l.128.082-.373.5a.465.465 0 0 0-.064.098.431.431 0 0 0-.03.09c0 .023.01.046.028.073a.96.96 0 0 0 .078.101l.116.117Z" fill="#DA251D"/></svg>