<svg width="107" height="33" fill="none" xmlns="http://www.w3.org/2000/svg"><path d="M60.633 14.49h-6.46l-.799 1.795c-.254.596-.383 1.086-.383 1.475 0 .517.211.899.627 1.14.244.142.844.251 1.805.325v.506h-6.12v-.506c.658-.099 1.202-.369 1.625-.817.428-.453.953-1.372 1.578-2.776l6.58-14.69h.26l6.64 15.097c.634 1.426 1.152 2.325 1.557 2.692.31.287.747.45 1.302.494v.506h-8.9v-.506h.365c.711 0 1.217-.099 1.509-.3.199-.144.296-.35.296-.62 0-.164-.027-.33-.082-.5-.015-.084-.15-.42-.404-1.019l-.996-2.296Zm-.438-.997L57.451 7.18l-2.826 6.313h5.57ZM81.753 9.772c1.795.416 3.056.918 3.781 1.51 1.047.842 1.566 1.931 1.566 3.268 0 1.414-.567 2.58-1.703 3.504-1.399 1.119-3.425 1.677-6.086 1.677h-9.552v-.515c.862 0 1.457-.082 1.762-.247.314-.157.524-.367.655-.624.125-.26.186-.894.186-1.909V4.238c0-1.013-.061-1.654-.186-1.913a1.372 1.372 0 0 0-.657-.628c-.315-.16-.899-.237-1.76-.237V.943h9.007c2.162 0 3.68.194 4.578.577.9.38 1.603.953 2.118 1.718.52.76.779 1.574.779 2.431 0 .908-.33 1.712-.993 2.42-.66.71-1.824 1.266-3.495 1.683Zm-5.02.707-.013 6.025v.69c0 .494.127.87.38 1.12.246.254.612.383 1.102.383.727 0 1.391-.161 2.006-.488a3.34 3.34 0 0 0 1.407-1.427 4.5 4.5 0 0 0 .486-2.087c0-.878-.179-1.661-.552-2.36-.367-.698-.904-1.184-1.618-1.455-.715-.281-1.783-.411-3.199-.4Zm0-1.082c1.317 0 2.288-.146 2.914-.443.624-.296 1.102-.71 1.437-1.25.334-.538.507-1.225.507-2.057 0-.832-.172-1.518-.494-2.052a3.158 3.158 0 0 0-1.415-1.213c-.612-.276-1.593-.414-2.942-.404l-.008 7.42ZM100.684 9.772c1.798.416 3.062.918 3.783 1.51 1.041.842 1.562 1.931 1.562 3.268 0 1.414-.568 2.58-1.705 3.504-1.394 1.119-3.423 1.677-6.08 1.677H88.69v-.515c.87 0 1.453-.082 1.766-.247.308-.157.528-.367.647-.624.127-.26.187-.894.187-1.909V4.238c0-1.013-.06-1.654-.187-1.913-.119-.265-.34-.477-.658-.628-.313-.16-.897-.237-1.755-.237V.943h9.011c2.155 0 3.68.194 4.57.577.898.38 1.608.953 2.127 1.718.513.76.774 1.574.774 2.431 0 .908-.333 1.712-.99 2.42-.663.71-1.83 1.266-3.499 1.683Zm-5.018.707-.013 6.025v.69c0 .494.125.87.372 1.12.25.254.618.383 1.11.383a4.2 4.2 0 0 0 2.007-.488 3.327 3.327 0 0 0 1.401-1.427c.328-.624.491-1.319.491-2.087 0-.878-.185-1.661-.55-2.36-.371-.698-.911-1.184-1.623-1.455-.71-.281-1.78-.411-3.195-.4Zm0-1.082c1.315 0 2.281-.146 2.91-.443.628-.296 1.106-.71 1.441-1.25.332-.538.5-1.225.5-2.057 0-.832-.167-1.518-.495-2.052a3.122 3.122 0 0 0-1.409-1.213c-.61-.276-1.592-.414-2.946-.404l-.001 7.42ZM47.21 10.307c0 .089-.005.178-.01.266-1.61-.68-4.34-1.186-7.616-1.186-9.665 0-20.183 8.534-24.54 9.548-3.635-.64-6.785-1.65-9.165-2.915 1.503.518 3.6.832 5.365.832 9.072 0 17.904-5.958 22.96-8.644 4.651-2.465 7.264-2.946 10.337-2.291 1.703 1.31 2.668 2.804 2.668 4.39ZM4.327 15.085c-2.031-1.4-3.197-3.033-3.197-4.778C1.13 5.12 11.446.913 24.167.913c7.9 0 14.869 1.62 19.02 4.09-1.19-.36-2.777-.569-5.048-.569-7.789 0-17.342 5.705-21.833 7.803-4.386 2.044-8.995 3.771-11.978 2.848Zm42.845-4.257c-.663 4.95-10.708 8.873-23.006 8.873-.372 0-.741-.004-1.108-.011 13.296-7.1 17.84-9.382 24.114-8.862Z" fill="#DA251D"/><path d="M0 10.307c0 5.685 10.84 10.31 24.167 10.31 13.328 0 24.172-4.625 24.172-10.31 0-2.767-2.525-5.363-7.108-7.307-4.56-1.934-10.617-3-17.064-3C10.84 0 0 4.623 0 10.307Zm.169 0C.169 4.724 10.935.179 24.167.179c6.427 0 12.463 1.06 17.005 2.99 4.513 1.913 7 4.446 7 7.138 0 5.586-10.768 10.127-24.005 10.127-13.232 0-23.998-4.541-23.998-10.127Z" fill="#DA251D"/><path fill-rule="evenodd" clip-rule="evenodd" d="M7.634 29.85H4.709l-.526 1.13a2.565 2.565 0 0 0-.139.36c-.028.104-.043.19-.043.255 0 .097.034.18.106.25a.72.72 0 0 0 .328.159.962.962 0 0 0 .186.034c.075.006.156.01.248.01v.193H2.492v-.194c.155-.027.284-.057.387-.09a.71.71 0 0 0 .23-.115c.086-.075.183-.199.29-.37.105-.172.219-.39.339-.653L6.4 24.947h.194l2.628 5.936c.108.238.211.433.308.59.097.154.189.267.274.337a.9.9 0 0 0 .322.18c.122.037.255.057.398.057v.194H7.542v-.194c.103 0 .196-.005.282-.018a.83.83 0 0 0 .22-.057.496.496 0 0 0 .22-.203.323.323 0 0 0 .044-.164c0-.075-.018-.174-.054-.298a3.309 3.309 0 0 0-.163-.434l-.457-1.024Zm-.16-.389-1.28-2.887L4.87 29.46h2.605Zm5.518-.56v2.08c0 .22.013.4.042.54.026.138.066.235.118.29a.69.69 0 0 0 .268.179c.105.037.229.057.371.057h.286v.194h-3.233v-.194h.286c.32 0 .548-.097.685-.29.034-.06.06-.152.078-.28.017-.127.025-.292.025-.497V26.37c0-.221-.012-.402-.036-.542a.609.609 0 0 0-.113-.299.63.63 0 0 0-.264-.17 1.13 1.13 0 0 0-.376-.056h-.285v-.194h2.765c.302 0 .57.011.807.033.234.021.438.054.61.097.245.064.466.158.66.282.196.122.367.273.516.45.137.157.238.327.303.51a1.8 1.8 0 0 1 .097.6c0 .318-.057.6-.17.848a1.68 1.68 0 0 1-.504.628 2.258 2.258 0 0 1-.731.368 3.2 3.2 0 0 1-.937.128c-.206 0-.413-.013-.625-.04a6.471 6.471 0 0 1-.643-.111Zm0-.302.525.087.389.021c.177.01.348-.02.514-.09.165-.072.325-.185.48-.341.142-.14.251-.302.323-.483.075-.183.11-.384.11-.605 0-.345-.064-.64-.193-.882a1.406 1.406 0 0 0-.572-.573 1.871 1.871 0 0 0-1.173-.18c-.12.019-.255.046-.403.083V28.6Zm8.682 3.642-2.913-6.001v4.762c0 .22.012.399.036.535.023.138.061.235.113.295.063.07.148.123.257.16.108.037.24.055.394.055h.263v.194h-2.628v-.194h.263c.154 0 .29-.021.403-.066a.653.653 0 0 0 .282-.203.816.816 0 0 0 .061-.155 1.5 1.5 0 0 0 .051-.388c.002-.07.002-.147.002-.233v-4.665c0-.313-.034-.54-.102-.68-.126-.236-.446-.355-.96-.355v-.194h2.136l2.742 5.581 2.708-5.58h2.136v.193h-.262c-.16 0-.298.022-.412.067a.6.6 0 0 0-.274.203.757.757 0 0 0-.093.282c-.021.129-.033.294-.033.493v4.655c0 .22.014.399.042.535a.637.637 0 0 0 .118.295c.069.07.158.123.267.16.108.037.236.055.384.055h.263v.194h-3.21v-.194h.263c.16 0 .297-.021.411-.066a.598.598 0 0 0 .274-.203.816.816 0 0 0 .061-.155 1.627 1.627 0 0 0 .057-.388 2.87 2.87 0 0 0 .008-.233V26.24l-2.925 6.001h-.183Zm12.476-1.95c0 .188-.03.37-.093.542a1.832 1.832 0 0 1-.284.503 2.115 2.115 0 0 1-.948.679 3.548 3.548 0 0 1-.787.169 9.69 9.69 0 0 1-1.121.057h-3.565v-.194h.286c.149 0 .28-.023.392-.072a.695.695 0 0 0 .282-.208.623.623 0 0 0 .097-.284c.02-.13.029-.298.029-.503v-4.665c0-.356-.023-.593-.069-.711a.486.486 0 0 0-.255-.268 1.147 1.147 0 0 0-.487-.088h-.263v-.194h5.62l.08 1.563h-.194c-.08-.28-.188-.51-.323-.688a1.15 1.15 0 0 0-.488-.379 1.53 1.53 0 0 0-.361-.082 4.754 4.754 0 0 0-.518-.026h-1.668v2.92l.068.011h.4l.583.01a11.093 11.093 0 0 1 1.873.216c.263.06.493.13.691.212.199.084.36.182.486.295.177.156.31.334.402.531.09.2.135.417.135.654Zm-1.29.086c0-.329-.087-.609-.256-.842-.171-.232-.425-.419-.762-.559a2.6 2.6 0 0 0-.619-.174 4.598 4.598 0 0 0-.729-.052h-.582c-.052 0-.094.002-.128.006a.823.823 0 0 1-.078.005l-.105.012a.355.355 0 0 0-.09.02v2.93a5.868 5.868 0 0 0 1.28.14c.28 0 .537-.026.771-.082.235-.054.446-.138.634-.251.223-.135.389-.296.5-.489.108-.19.163-.41.163-.664ZM37.131 30l3.507-2.898v-.722c0-.183-.006-.336-.017-.46a1.093 1.093 0 0 0-.051-.273.342.342 0 0 0-.086-.111.669.669 0 0 0-.154-.104.936.936 0 0 0-.238-.097 1.074 1.074 0 0 0-.265-.033h-.274v-.194h3.244v.194h-.274c-.085 0-.171.011-.255.03a1.34 1.34 0 0 0-.247.089.458.458 0 0 0-.24.258c-.023.06-.04.148-.052.266a4.6 4.6 0 0 0-.017.435v4.6c0 .356.023.593.069.712a.602.602 0 0 0 .228.226c.16.086.331.13.514.13h.274v.193h-3.244v-.194h.274c.154 0 .288-.021.402-.064a.627.627 0 0 0 .272-.195c.046-.053.08-.15.103-.287a3.25 3.25 0 0 0 .034-.52v-3.492l-3.507 2.899v.592c0 .367.023.604.068.712a.357.357 0 0 0 .084.12c.04.038.088.073.145.106.08.043.16.075.244.097.084.021.173.032.27.032h.274v.194h-3.244v-.194h.274c.154 0 .287-.021.402-.064a.627.627 0 0 0 .272-.195c.091-.107.137-.377.137-.808v-4.6c0-.183-.006-.334-.017-.456a1.214 1.214 0 0 0-.052-.277.53.53 0 0 0-.087-.12.535.535 0 0 0-.141-.095 1.067 1.067 0 0 0-.514-.13h-.274v-.194h3.244v.194h-.274a1.169 1.169 0 0 0-.514.119.399.399 0 0 0-.14.104.492.492 0 0 0-.089.144c-.045.107-.068.344-.068.71V30Zm11.882.42c0 .108-.018.221-.052.338a1.762 1.762 0 0 1-.154.363 2.301 2.301 0 0 1-.88.861c-.48.28-1.108.42-1.885.42a3.363 3.363 0 0 1-1.508-.355 4.366 4.366 0 0 1-.55-.327 2.352 2.352 0 0 1-.398-.34l-.332-.357.206-.194.468.431c.098.092.214.176.347.252.133.077.282.147.442.212.183.075.382.13.598.163.213.036.441.052.681.052.235 0 .452-.037.653-.111.2-.075.387-.185.558-.33.166-.151.29-.318.37-.503.082-.183.122-.386.122-.607a1.84 1.84 0 0 0-.162-.807 1.274 1.274 0 0 0-.478-.54c-.309-.194-.674-.29-1.097-.29h-1.028v-.454h1.062a1.5 1.5 0 0 0 .453-.071c.153-.047.307-.117.461-.209a1.38 1.38 0 0 0 .484-.479c.105-.185.156-.399.156-.641 0-.226-.034-.431-.1-.616a1.529 1.529 0 0 0-.3-.494 1.347 1.347 0 0 0-.497-.348 1.66 1.66 0 0 0-.634-.115c-.291 0-.562.048-.81.147-.25.1-.475.251-.675.456a2.505 2.505 0 0 0-.46.622c-.132.24-.237.515-.317.822h-.263l.218-2.424h.24a.393.393 0 0 0 .183.27.69.69 0 0 0 .343.086c.342-.13.662-.225.959-.286.297-.061.57-.092.822-.092.709 0 1.291.151 1.748.453.252.172.442.38.571.625.13.244.194.528.194.85 0 .319-.08.593-.241.827-.16.232-.404.424-.73.575a3.128 3.128 0 0 1-.65.226v.021c.622.108 1.088.322 1.397.64.31.32.464.745.465 1.278Zm2.718-2.004h3.508V26.38c0-.183-.006-.336-.017-.46a1.102 1.102 0 0 0-.052-.273.344.344 0 0 0-.085-.111.67.67 0 0 0-.155-.104.94.94 0 0 0-.238-.097 1.075 1.075 0 0 0-.264-.033h-.275v-.194H57.4v.194h-.274c-.086 0-.172.011-.255.03-.086.022-.168.051-.248.089a.458.458 0 0 0-.24.258c-.023.06-.04.148-.051.266a4.6 4.6 0 0 0-.017.435v4.6c0 .356.023.593.068.712a.597.597 0 0 0 .228.226c.16.086.332.13.515.13h.274v.193h-3.245v-.194h.275c.154 0 .287-.021.401-.064a.627.627 0 0 0 .273-.195c.045-.053.08-.15.103-.287a3.25 3.25 0 0 0 .034-.52v-2.177h-3.508v2.176c0 .367.023.604.069.712a.36.36 0 0 0 .084.12c.04.038.087.073.145.106.08.043.16.075.243.097.084.021.173.032.27.032h.275v.194h-3.245v-.194h.274c.155 0 .288-.021.402-.064a.627.627 0 0 0 .273-.195c.09-.107.137-.377.137-.808v-4.6c0-.183-.006-.334-.017-.456a1.207 1.207 0 0 0-.052-.277.532.532 0 0 0-.088-.12.534.534 0 0 0-.14-.095 1.067 1.067 0 0 0-.515-.13h-.274v-.194h3.245v.194h-.274a1.17 1.17 0 0 0-.514.119.4.4 0 0 0-.14.104.494.494 0 0 0-.089.144c-.046.107-.069.344-.069.71v2.037Zm8.283-2.92v2.823h1.668c.212 0 .39-.016.535-.048a.684.684 0 0 0 .322-.146.816.816 0 0 0 .248-.343c.055-.142.084-.309.084-.497h.205v2.478h-.206a8.792 8.792 0 0 0-.08-.428.892.892 0 0 0-.08-.24.703.703 0 0 0-.367-.296 1.81 1.81 0 0 0-.66-.103h-1.669v2.36c0 .161.004.29.01.386a.489.489 0 0 0 .036.185c.057.15.251.226.583.226h1.28c.188 0 .348-.005.48-.014a2.91 2.91 0 0 0 .319-.04c.131-.027.255-.072.37-.134.114-.063.218-.14.315-.232.115-.102.229-.235.347-.397.116-.163.236-.357.362-.584h.228l-.651 1.789h-5.827v-.194h.263c.086 0 .172-.01.255-.03.086-.022.168-.05.248-.088a.465.465 0 0 0 .19-.162.669.669 0 0 0 .096-.259c.011-.043.017-.107.02-.195.002-.087.002-.198.002-.333v-4.633c0-.463-.045-.743-.137-.84a.61.61 0 0 0-.272-.155 1.41 1.41 0 0 0-.402-.05h-.263v-.194h5.827l.08 1.563h-.217a4.85 4.85 0 0 0-.122-.478 1.115 1.115 0 0 0-.14-.298.995.995 0 0 0-.412-.323 1.094 1.094 0 0 0-.3-.058 5.316 5.316 0 0 0-.488-.018h-2.08Zm11.47-.55.172 2.425h-.171c-.212-.684-.526-1.196-.945-1.537-.42-.34-.946-.51-1.58-.51-.543 0-1.007.124-1.394.373-.386.252-.691.629-.914 1.135-.12.264-.21.56-.267.887a6.085 6.085 0 0 0-.087 1.074c0 .323.026.625.078.905.053.28.133.539.242.776a2.46 2.46 0 0 0 1.005 1.099c.217.124.451.215.7.277a3.458 3.458 0 0 0 1.594-.01c.246-.064.47-.165.676-.3.16-.107.33-.25.507-.428.177-.18.362-.396.556-.649l.171.108c-.365.609-.809 1.067-1.329 1.372-.521.307-1.121.46-1.801.46-.623 0-1.177-.11-1.66-.33a3.28 3.28 0 0 1-1.242-.985 3.581 3.581 0 0 1-.58-1.068 3.789 3.789 0 0 1-.197-1.238c0-.69.16-1.325.48-1.907a3.631 3.631 0 0 1 1.428-1.433 3.8 3.8 0 0 1 .933-.373c.324-.081.66-.122 1.01-.122.268 0 .536.03.807.091.268.061.54.157.815.286.074.032.139.06.196.079.055.021.1.034.135.04.109 0 .2-.044.278-.128a.983.983 0 0 0 .19-.368h.195Zm7.735 5.345c0 .188-.03.37-.093.542a1.835 1.835 0 0 1-.284.503 2.115 2.115 0 0 1-.948.679 3.547 3.547 0 0 1-.787.169c-.32.037-.693.057-1.121.057h-3.565v-.194h.286c.149 0 .28-.023.392-.072a.695.695 0 0 0 .282-.208.623.623 0 0 0 .097-.284 3.6 3.6 0 0 0 .029-.503v-4.665c0-.356-.023-.593-.069-.711a.486.486 0 0 0-.255-.268 1.147 1.147 0 0 0-.487-.088h-.263v-.194h5.62l.08 1.563h-.194c-.08-.28-.188-.51-.323-.688a1.15 1.15 0 0 0-.488-.379 1.528 1.528 0 0 0-.361-.082 4.751 4.751 0 0 0-.518-.026h-1.668v2.92l.068.011h.4l.583.01a11.096 11.096 0 0 1 1.873.216c.263.06.493.13.692.212.198.084.36.182.485.295.177.156.31.334.402.531.09.2.135.417.135.654Zm-1.29.086c0-.329-.087-.609-.256-.842-.171-.232-.425-.419-.762-.559a2.602 2.602 0 0 0-.619-.174 4.598 4.598 0 0 0-.729-.052h-.582c-.052 0-.094.002-.128.006a.823.823 0 0 1-.078.005l-.105.012a.354.354 0 0 0-.09.02v2.93a5.87 5.87 0 0 0 1.28.14c.28 0 .537-.026.771-.082.235-.054.446-.138.634-.251.223-.135.389-.296.5-.489.108-.19.163-.41.163-.664Zm7.15-.528h-2.924l-.525 1.131a2.576 2.576 0 0 0-.14.36c-.028.104-.043.19-.043.255 0 .097.034.18.106.25a.72.72 0 0 0 .328.159.963.963 0 0 0 .187.034c.074.006.156.01.247.01v.193H79.94v-.194c.154-.027.284-.057.386-.09a.708.708 0 0 0 .23-.115c.087-.075.184-.199.29-.37a6.27 6.27 0 0 0 .339-.653l2.662-5.872h.194l2.628 5.936c.109.238.211.433.308.59.098.154.189.267.274.337.092.08.2.14.322.18.122.037.256.057.398.057v.194H84.99v-.194c.102 0 .196-.005.281-.018a.831.831 0 0 0 .221-.057.495.495 0 0 0 .22-.203.322.322 0 0 0 .043-.164c0-.075-.017-.174-.053-.298a3.291 3.291 0 0 0-.164-.434l-.457-1.024Zm-.159-.388-1.28-2.887-1.325 2.887h2.605Zm5.53-1.045h3.507V26.38c0-.183-.006-.336-.017-.46a1.093 1.093 0 0 0-.052-.273.344.344 0 0 0-.085-.111.67.67 0 0 0-.155-.104.936.936 0 0 0-.238-.097 1.074 1.074 0 0 0-.264-.033h-.275v-.194h3.245v.194h-.274c-.086 0-.172.011-.255.03-.086.022-.168.051-.248.089a.458.458 0 0 0-.24.258 1.07 1.07 0 0 0-.051.266 4.633 4.633 0 0 0-.017.435v4.6c0 .356.023.593.068.712a.601.601 0 0 0 .228.226c.16.086.332.13.515.13h.274v.193h-3.245v-.194h.275c.154 0 .287-.021.401-.064a.627.627 0 0 0 .273-.195c.046-.053.08-.15.103-.287.022-.136.034-.31.034-.52v-2.177H90.45v2.176c0 .367.023.604.069.712a.358.358 0 0 0 .084.12c.04.038.087.073.144.106.08.043.16.075.244.097.084.021.173.032.27.032h.275v.194H88.29v-.194h.274c.155 0 .288-.021.402-.064a.626.626 0 0 0 .272-.195c.092-.107.137-.377.137-.808v-4.6c0-.183-.005-.334-.017-.456a1.202 1.202 0 0 0-.051-.277.529.529 0 0 0-.088-.12.533.533 0 0 0-.14-.095 1.067 1.067 0 0 0-.515-.13h-.274v-.194h3.245v.194h-.274a1.168 1.168 0 0 0-.514.119.402.402 0 0 0-.14.104.494.494 0 0 0-.089.144c-.046.107-.069.344-.069.71v2.037Zm9.3-.13 2.798 2.619a5.3 5.3 0 0 0 1.095.804c.356.193.704.306 1.041.338l.001.194h-3.599v-.194c.205 0 .36-.027.462-.082a.267.267 0 0 0 .155-.252.416.416 0 0 0-.016-.111.551.551 0 0 0-.041-.104.797.797 0 0 0-.12-.157 5.335 5.335 0 0 0-.223-.22l-2.616-2.435v2.294c0 .367.022.604.068.712.034.086.114.161.24.226a.943.943 0 0 0 .238.097c.086.021.173.032.265.032h.263v.194h-3.234v-.194h.275c.308 0 .536-.086.685-.258a.7.7 0 0 0 .093-.284c.021-.135.033-.31.033-.524v-4.612a4.76 4.76 0 0 0-.017-.445 1.208 1.208 0 0 0-.052-.277.355.355 0 0 0-.084-.12.591.591 0 0 0-.144-.095 1.258 1.258 0 0 0-.254-.097 1.033 1.033 0 0 0-.26-.033h-.275v-.194h3.233v.194H99.5a1.094 1.094 0 0 0-.503.119.474.474 0 0 0-.24.248.952.952 0 0 0-.051.256 4.793 4.793 0 0 0-.017.444v2.187l.765-.668c.554-.485 1-.889 1.335-1.21.333-.32.556-.557.664-.708a.691.691 0 0 0 .113-.192.462.462 0 0 0 .036-.174.246.246 0 0 0-.128-.228c-.085-.049-.215-.074-.386-.074h-.172v-.194h2.788v.194c-.148 0-.301.024-.455.072a2.47 2.47 0 0 0-.482.208c-.125.07-.247.151-.367.241-.12.092-.238.19-.353.298l-2.296 2.166Z" fill="#DA251D"/></svg>