<svg width="26" height="26" fill="none" xmlns="http://www.w3.org/2000/svg"><path d="M13 2.167a10.834 10.834 0 1 0 0 21.667 10.834 10.834 0 0 0 0-21.667ZM7.659 19.803c.466-.975 3.304-1.928 5.34-1.928 2.037 0 4.876.953 5.342 1.928A8.55 8.55 0 0 1 13 21.667a8.55 8.55 0 0 1-5.341-1.864Zm12.23-1.57c-1.548-1.886-5.307-2.525-6.89-2.525-1.58 0-5.34.64-6.89 2.525A8.589 8.589 0 0 1 4.334 13c0-4.778 3.89-8.667 8.667-8.667 4.777 0 8.666 3.89 8.666 8.667a8.589 8.589 0 0 1-1.776 5.233ZM13 6.5a3.782 3.782 0 0 0-3.79 3.792A3.782 3.782 0 0 0 13 14.083a3.782 3.782 0 0 0 3.792-3.791A3.782 3.782 0 0 0 13 6.5Zm0 5.417a1.625 1.625 0 1 1 0-3.25 1.625 1.625 0 0 1 0 3.25Z" fill="currentColor"/></svg>