<svg width="26" height="26" fill="none" xmlns="http://www.w3.org/2000/svg"><path d="M13 24c-1.54 0-2.98-.289-4.318-.866a11.11 11.11 0 0 1-3.492-2.352 10.88 10.88 0 0 1-2.338-3.506C2.284 15.93 2 14.485 2 12.945c0-1.54.284-2.975.853-4.304A10.96 10.96 0 0 1 5.19 5.162c.99-.99 2.154-1.764 3.492-2.323C10.021 2.279 11.46 2 13 2c1.54 0 2.98.28 4.317.839a10.736 10.736 0 0 1 3.493 2.323c.99.99 1.77 2.15 2.338 3.48.568 1.328.852 2.763.852 4.303s-.284 2.984-.852 4.331a10.879 10.879 0 0 1-2.338 3.506 11.11 11.11 0 0 1-3.492 2.352C15.978 23.71 14.54 24 13 24Zm4.345-15.125h4.125a8.91 8.91 0 0 0-2.489-3.162c-1.054-.844-2.269-1.44-3.644-1.788.459.678.848 1.412 1.17 2.2.32.788.6 1.705.838 2.75Zm-6.985 0h5.335a10.726 10.726 0 0 0-1.018-2.819A11.25 11.25 0 0 0 13 3.65c-.587.495-1.082 1.146-1.485 1.953-.403.806-.788 1.897-1.155 3.272Zm-6.38 6.572h4.372c-.055-.494-.087-.94-.096-1.333a51.238 51.238 0 0 1-.014-1.169c0-.458.01-.866.028-1.224.018-.357.055-.756.11-1.196h-4.4a8.02 8.02 0 0 0-.261 1.182c-.046.349-.069.761-.069 1.238s.023.903.069 1.279c.046.376.133.784.261 1.223Zm6.682 6.628A13.15 13.15 0 0 1 9.48 19.82a16.476 16.476 0 0 1-.825-2.723H4.53c.697 1.302 1.503 2.324 2.42 3.067.917.742 2.154 1.38 3.712 1.911ZM4.53 8.875h4.152c.202-.99.459-1.875.77-2.654.312-.779.706-1.535 1.183-2.268-1.375.348-2.576.935-3.603 1.76-1.026.824-1.86 1.879-2.502 3.162ZM13 22.405a9.15 9.15 0 0 0 1.609-2.269c.43-.852.784-1.865 1.059-3.038H10.36c.257 1.1.6 2.09 1.031 2.97A9.36 9.36 0 0 0 13 22.405Zm-2.943-6.958h5.913c.073-.568.12-1.03.138-1.388a21.804 21.804 0 0 0 0-2.173 19.37 19.37 0 0 0-.138-1.361h-5.913a19.37 19.37 0 0 0-.137 1.361 21.77 21.77 0 0 0 0 2.172c.018.358.064.821.137 1.39Zm5.308 6.6a11.012 11.012 0 0 0 3.561-1.897 9.85 9.85 0 0 0 2.544-3.052h-4.098c-.238.99-.517 1.888-.838 2.695-.321.806-.71 1.558-1.169 2.255Zm2.255-6.6h4.4c.128-.44.215-.847.261-1.223.046-.376.069-.802.069-1.279 0-.477-.023-.89-.069-1.238a8.019 8.019 0 0 0-.261-1.182h-4.372c.055.642.091 1.132.11 1.471.018.34.027.656.027.949 0 .403-.014.784-.041 1.141a61.87 61.87 0 0 1-.124 1.361Z" fill="currentColor"/></svg>