<svg width="30" height="30" viewBox="0 0 30 30" fill="none" xmlns="http://www.w3.org/2000/svg">
<rect width="30" height="30" rx="5" fill="#DA251D"/>
<path d="M27.0843 15.1985C27.0843 15.1985 27.0843 15.1985 27.0843 15.1985C27.0843 15.2241 27.0836 15.2497 27.0825 15.2753C27.0813 15.303 27.0531 15.3208 27.0273 15.3106C26.1917 14.9808 24.8081 14.7385 23.1545 14.7385C18.2244 14.7385 12.8635 18.9195 10.577 19.4971C10.5292 19.5092 10.4817 19.5097 10.4331 19.5012C9.71643 19.3766 9.03692 19.2247 8.40285 19.0489C8.14536 18.9775 8.28077 18.4721 8.54797 18.4721V18.4721C13.2238 18.4721 17.7757 15.4923 20.3812 14.1487C22.6371 12.9886 23.9626 12.7069 25.4307 12.9506C25.6147 12.9811 25.7881 13.0586 25.9317 13.1776C26.6704 13.7898 27.0843 14.475 27.0843 15.1985C27.0843 15.1985 27.0843 15.1985 27.0843 15.1985V15.1985ZM4.98362 17.5882C4.98362 17.5882 4.98362 17.5882 4.98362 17.5882C3.93694 16.8883 3.33594 16.0714 3.33594 15.1985C3.33594 12.6041 8.65232 10.5 15.2085 10.5C18.003 10.5 20.5715 10.8819 22.5996 11.521C22.9534 11.6324 22.7806 12.2613 22.4096 12.2613V12.2613C18.3952 12.2613 13.4719 15.1147 11.1569 16.1637C8.89651 17.1862 6.52097 18.05 4.98363 17.5882C4.98363 17.5882 4.98362 17.5882 4.98362 17.5882V17.5882ZM27.0658 15.4593C27.0658 15.4593 27.0658 15.4593 27.0658 15.4593C26.7239 17.9347 21.5469 19.8968 15.2084 19.8968V19.8968C15.0582 19.8968 15.0131 19.6966 15.1465 19.6276C21.6085 16.2835 23.9132 15.2058 27.0658 15.4593C27.0658 15.4593 27.0658 15.4593 27.0658 15.4593V15.4593Z" fill="white"/>
</svg>
