<svg width="28" height="29" fill="none" xmlns="http://www.w3.org/2000/svg"><mask id="a" style="mask-type:alpha" maskUnits="userSpaceOnUse" x="0" y="0" width="28" height="28"><rect width="28" height="28" rx="14" fill="#C4C4C4"/></mask><g mask="url(#a)"><g clip-path="url(#b)"><path d="M33.95 19.666h-39.9V29h39.9v-9.333Z" fill="#FF4B55"/><path d="M33.95 10.333h-39.9v9.333h39.9v-9.333Z" fill="#41479B"/><path d="M33.95 1h-39.9v9.333h39.9V1Z" fill="#fff"/></g><rect x=".25" y=".25" width="27.5" height="27.5" rx="13.75" stroke="#fff" stroke-opacity=".16" stroke-width=".5"/></g><defs><clipPath id="b"><path d="M-5.95 13c0-5.657 0-8.485 1.757-10.243C-2.435 1 .393 1 6.05 1h15.9c5.657 0 8.485 0 10.243 1.757C33.95 4.515 33.95 7.343 33.95 13v4c0 5.657 0 8.485-1.757 10.243C30.435 29 27.607 29 21.95 29H6.05c-5.657 0-8.485 0-10.243-1.757C-5.95 25.485-5.95 22.657-5.95 17v-4Z" fill="#fff"/></clipPath></defs></svg>