<svg width="28" height="29" fill="none" xmlns="http://www.w3.org/2000/svg"><mask id="a" style="mask-type:alpha" maskUnits="userSpaceOnUse" x="0" y="0" width="28" height="28"><rect width="28" height="28" rx="14" fill="#C4C4C4"/></mask><g mask="url(#a)"><rect x=".25" y=".25" width="27.5" height="27.5" rx="13.75" stroke="#fff" stroke-opacity=".16" stroke-width=".5"/><path d="M14 28c7.732 0 14-6.268 14-14S21.732 0 14 0 0 6.268 0 14s6.268 14 14 14Z" fill="#F0F0F0"/><path d="M13.391 14H28c0-1.264-.168-2.488-.482-3.652H13.39V14ZM13.391 6.696h12.554a14.074 14.074 0 0 0-3.23-3.653H13.39v3.653ZM14 28a13.94 13.94 0 0 0 8.715-3.044H5.285A13.94 13.94 0 0 0 14 28ZM2.055 21.304h23.89a13.911 13.911 0 0 0 1.573-3.652H.482c.351 1.302.885 2.53 1.573 3.652Z" fill="#D80027"/><path d="M6.485 2.186h1.276l-1.187.862.453 1.395-1.186-.862-1.187.862.392-1.205C4 4.108 3.085 5.128 2.33 6.265h.41l-.756.548c-.118.197-.23.396-.339.599l.36 1.11-.672-.49c-.168.355-.32.718-.458 1.088l.397 1.223H2.74l-1.187.862.454 1.395-1.187-.862-.71.516A14.135 14.135 0 0 0 0 14h14V0c-2.766 0-5.344.802-7.515 2.186ZM7.027 12.6l-1.186-.862-1.187.862.453-1.395-1.186-.862h1.467l.453-1.395.453 1.395h1.467l-1.187.862.453 1.395Zm-.453-5.473.453 1.395-1.186-.862-1.187.862.453-1.395-1.186-.862h1.467L5.84 4.87l.453 1.395h1.467l-1.187.862ZM12.05 12.6l-1.186-.862-1.187.862.453-1.395-1.187-.862h1.467l.454-1.395.453 1.395h1.467l-1.187.862.453 1.395Zm-.453-5.473.453 1.395-1.186-.862-1.187.862.453-1.395-1.187-.862h1.467l.454-1.395.453 1.395h1.467l-1.187.862Zm0-4.079.453 1.395-1.186-.862-1.187.862.453-1.395-1.187-.862h1.467l.454-1.395.453 1.395h1.467l-1.187.862Z" fill="#0052B4"/></g></svg>